<?xml version="1.0" encoding="UTF-8"?>
<svg id="Camada_2" data-name="Camada 2" xmlns="http://www.w3.org/2000/svg" viewBox="0 0 501.62 61.52">
  <defs>
    <style>
      .cls-1 {
        stroke-width: 0px;
      }

      .cls-1, .cls-2 {
        fill: #000;
      }

      .cls-2 {
        font-family: 'Legacy_Sans', 'Legacy Sans';
        font-size: 57.76px;
      }

      .cls-3 {
        letter-spacing: -.01em;
      }

      .cls-4 {
        letter-spacing: -.02em;
      }

      .cls-5 {
        letter-spacing: -.04em;
      }

      .cls-6 {
        letter-spacing: 0em;
      }

      .cls-7 {
        letter-spacing: 0em;
      }
    </style>
  </defs>
  <g id="Camada_1-2" data-name="Camada 1">
    <g>
      <g>
        <path class="cls-1" d="M1.64,58.86c10.65-11.31,21.3-22.61,32.06-34.03-4.07-.13-8.05-.25-12.02-.38,0-.04-.01-.08-.02-.13,10.35-3.86,20.7-7.72,31.24-11.66-3.3,9.02-6.55,17.88-9.79,26.74-.05,0-.11,0-.16-.01-.55-3.03-1.09-6.06-1.68-9.33C28.02,39.77,14.89,49.38,1.76,59c-.04-.05-.08-.09-.11-.14Z"/>
        <path class="cls-1" d="M6.05,49.55c-1.3-1.25-2.23-2.74-3.04-4.3C-3.09,33.41.56,19.38,9.7,11.32c11.13-9.81,27.37-9.76,38.39.16.11.1.21.2.44.41-.88.33-1.66.66-2.48.92-.15.05-.42-.2-.6-.34-5.9-4.51-12.58-6.35-19.91-5.49-7.83.92-14.11,4.71-18.8,11.02C2.74,23.38.94,29.47,1.39,36.18c.31,4.6,1.87,8.8,4.28,12.71.13.22.26.44.38.66Z"/>
        <path class="cls-1" d="M37.34,49.4c-4.78.89-7.61,3.64-8.55,8.4-.87-4.81-3.75-7.53-8.73-8.37,4.81-.81,7.77-3.33,8.7-8.06.99,4.67,3.93,7.2,8.58,8.04Z"/>
        <path class="cls-1" d="M52.49,20.25c.47-.31.96-.63,1.56-1.02,2.65,4.78,3.78,9.88,3.5,15.3-.42,8.18-5.15,15.73-9.69,19.18,9.27-9.86,11.02-21.02,4.62-33.47Z"/>
      </g>
      <text class="cls-2" transform="translate(72.55 49.1)"><tspan class="cls-5" x="0" y="0">A</tspan><tspan x="46.79" y="0">s</tspan><tspan class="cls-3" x="83.99" y="0">t</tspan><tspan class="cls-4" x="113.16" y="0">r</tspan><tspan x="140.25" y="0">oF</tspan><tspan class="cls-6" x="218.06" y="0">i</tspan><tspan class="cls-7" x="232.73" y="0">nance</tspan></text>
    </g>
  </g>
</svg>