<?xml version="1.0" encoding="UTF-8"?>
<svg id="Camada_2" data-name="Camada 2" xmlns="http://www.w3.org/2000/svg" xmlns:xlink="http://www.w3.org/1999/xlink" viewBox="0 0 785.44 1152.89">
  <defs>
    <style>
      .cls-1 {
        fill: #000;
      }

      .cls-1, .cls-2, .cls-3, .cls-4, .cls-5, .cls-6, .cls-7, .cls-8, .cls-9, .cls-10, .cls-11, .cls-12, .cls-13, .cls-14, .cls-15, .cls-16, .cls-17, .cls-18, .cls-19, .cls-20 {
        stroke-width: 0px;
      }

      .cls-2 {
        fill: url(#Gradiente_sem_nome_14-3);
      }

      .cls-21 {
        clip-path: url(#clippath-2);
      }

      .cls-3 {
        fill: url(#Gradiente_sem_nome_6-3);
      }

      .cls-4 {
        fill: url(#Gradiente_sem_nome_13-8);
      }

      .cls-22 {
        clip-path: url(#clippath-6);
      }

      .cls-5 {
        fill: url(#Gradiente_sem_nome_14-2);
      }

      .cls-6 {
        fill: url(#Gradiente_sem_nome_13-7);
      }

      .cls-7 {
        fill: none;
      }

      .cls-23 {
        clip-path: url(#clippath-1);
      }

      .cls-24 {
        clip-path: url(#clippath-4);
      }

      .cls-8 {
        fill: url(#Gradiente_sem_nome_13);
      }

      .cls-9 {
        fill: url(#Gradiente_sem_nome_13-3);
      }

      .cls-10 {
        fill: url(#Gradiente_sem_nome_13-2);
      }

      .cls-11 {
        fill: url(#Gradiente_sem_nome_1243);
      }

      .cls-12 {
        fill: url(#Gradiente_sem_nome_13-6);
      }

      .cls-13 {
        fill: url(#Gradiente_sem_nome_6);
      }

      .cls-14 {
        fill: url(#Gradiente_sem_nome_6-4);
      }

      .cls-25 {
        clip-path: url(#clippath);
      }

      .cls-26 {
        clip-path: url(#clippath-3);
      }

      .cls-15 {
        fill: url(#Gradiente_sem_nome_13-9);
      }

      .cls-16 {
        fill: #fff;
      }

      .cls-27 {
        clip-path: url(#clippath-5);
      }

      .cls-17 {
        fill: url(#Gradiente_sem_nome_14);
      }

      .cls-18 {
        fill: url(#Gradiente_sem_nome_13-4);
      }

      .cls-19 {
        fill: url(#Gradiente_sem_nome_13-5);
      }

      .cls-20 {
        fill: url(#Gradiente_sem_nome_6-2);
      }
    </style>
    <linearGradient id="Gradiente_sem_nome_13" data-name="Gradiente sem nome 13" x1="2313.87" y1="-373.16" x2="2416.64" y2="-373.16" gradientTransform="translate(2883.6 1085.71) rotate(-168.85)" gradientUnits="userSpaceOnUse">
      <stop offset=".1" stop-color="#ffe26c"/>
      <stop offset=".14" stop-color="#ffe371"/>
      <stop offset=".52" stop-color="#fff1b8"/>
      <stop offset=".78" stop-color="#fffbeb"/>
      <stop offset=".92" stop-color="#fff"/>
    </linearGradient>
    <linearGradient id="Gradiente_sem_nome_6" data-name="Gradiente sem nome 6" x1="1946.83" y1="-272.99" x2="1702.7" y2="-272.99" gradientTransform="translate(2372.92 809.46) rotate(-180)" gradientUnits="userSpaceOnUse">
      <stop offset=".1" stop-color="#fff"/>
      <stop offset=".18" stop-color="#6f7eb2"/>
      <stop offset=".54" stop-color="#6c8dff"/>
      <stop offset=".79" stop-color="#b4c5ff"/>
      <stop offset=".92" stop-color="#abbeff"/>
    </linearGradient>
    <clipPath id="clippath">
      <path class="cls-7" d="M449.42,1026.86s-20.62,27.73-13.21,72.19c2.69,16.19,36.86,2.69,56.19,18.43,19.33,15.74,77.31,30.29,115.99,16.64,22.93-8.09,24.28-32.78,10.34-50.11-13.94-17.33-55.8-25.21-84.52-51.04-13.49-12.14-29.22,9.1-45.85,9-26.2-.17-32.33-22.52-38.93-15.09h0Z"/>
    </clipPath>
    <linearGradient id="Gradiente_sem_nome_13-2" data-name="Gradiente sem nome 13" x1="177.39" y1="-184.92" x2="280.16" y2="-184.92" gradientTransform="translate(0 809.46) scale(1 -1)" xlink:href="#Gradiente_sem_nome_13"/>
    <linearGradient id="Gradiente_sem_nome_1243" data-name="Gradiente sem nome 1243" x1="172.78" y1="95.59" x2="580.94" y2="95.59" gradientTransform="translate(0 809.46) scale(1 -1)" gradientUnits="userSpaceOnUse">
      <stop offset=".1" stop-color="#5e8bf5"/>
      <stop offset=".25" stop-color="#6187de"/>
      <stop offset=".39" stop-color="#5e8bf2"/>
      <stop offset=".53" stop-color="#75a0ff"/>
      <stop offset=".66" stop-color="#a7c0ff"/>
      <stop offset=".79" stop-color="#aac3ff"/>
      <stop offset=".91" stop-color="#fefefe"/>
      <stop offset=".92" stop-color="#fff"/>
    </linearGradient>
    <clipPath id="clippath-1">
      <path class="cls-7" d="M366.45,452.49s-149.13,327-193.67,517.9c0,0,66.41,45.4,142.01,9.39,0,0,118.24-391.29,127.44-390.14,9.19,1.15-26.51,179.41-35.08,396.73,0,0,57.83,31.31,133.99,0,0,0,33.61-192.86,39.8-558.92l-214.49,25.05h0Z"/>
    </clipPath>
    <linearGradient id="Gradiente_sem_nome_6-2" data-name="Gradiente sem nome 6" x1="944.49" y1="642.44" x2="230.01" y2="340.61" gradientTransform="translate(0 809.46) scale(1 -1)" xlink:href="#Gradiente_sem_nome_6"/>
    <clipPath id="clippath-2">
      <path class="cls-7" d="M164.11,270.37c-4.38,63.83,89.35,148.84,167.24,165.06,0,0,80.5,138.91,283.02,29.87,0,0,150.5,56.87,168.39-31.58,19.89-98.27-155.75-180.76-230.55-208.64-74.8-27.88-233.19-12.3-233.19-12.3l-25.12,70.2-115.1-8.6-14.69-4.01h0Z"/>
    </clipPath>
    <linearGradient id="Gradiente_sem_nome_6-3" data-name="Gradiente sem nome 6" x1="-3.25" y1="470.95" x2="328.97" y2="454.75" gradientTransform="translate(0 809.46) scale(1 -1)" xlink:href="#Gradiente_sem_nome_6"/>
    <linearGradient id="Gradiente_sem_nome_13-3" data-name="Gradiente sem nome 13" x1="466.69" y1="664.28" x2="601.39" y2="664.28" gradientTransform="translate(0 809.46) scale(1 -1)" xlink:href="#Gradiente_sem_nome_13"/>
    <linearGradient id="Gradiente_sem_nome_13-4" data-name="Gradiente sem nome 13" x1="543.9" y1="670.12" x2="470.95" y2="676.57" gradientTransform="translate(0 809.46) scale(1 -1)" xlink:href="#Gradiente_sem_nome_13"/>
    <linearGradient id="Gradiente_sem_nome_13-5" data-name="Gradiente sem nome 13" x1="428.57" y1="499.84" x2="581.08" y2="499.84" gradientTransform="translate(0 809.46) scale(1 -1)" xlink:href="#Gradiente_sem_nome_13"/>
    <linearGradient id="Gradiente_sem_nome_13-6" data-name="Gradiente sem nome 13" x1="205.33" y1="550.03" x2="293.9" y2="550.03" gradientTransform="translate(0 809.46) scale(1 -1)" xlink:href="#Gradiente_sem_nome_13"/>
    <linearGradient id="Gradiente_sem_nome_6-4" data-name="Gradiente sem nome 6" x1="289.08" x2="44.94" gradientTransform="translate(0 809.46) scale(1 -1)" xlink:href="#Gradiente_sem_nome_6"/>
    <clipPath id="clippath-3">
      <path class="cls-7" d="M265.75,1026.86s20.62,27.73,13.21,72.19c-2.69,16.19-36.86,2.69-56.19,18.43-19.33,15.74-77.31,30.29-115.99,16.64-22.93-8.09-24.28-32.78-10.34-50.11,13.94-17.33,55.8-25.21,84.52-51.04,13.49-12.14,29.22,9.1,45.85,9,26.2-.17,32.33-22.52,38.93-15.09h0Z"/>
    </clipPath>
    <linearGradient id="Gradiente_sem_nome_13-7" data-name="Gradiente sem nome 13" x1="-4306.23" y1="3064.99" x2="-4485.51" y2="3177.73" gradientTransform="translate(-4270.54 3313.77) rotate(-180)" xlink:href="#Gradiente_sem_nome_13"/>
    <linearGradient id="Gradiente_sem_nome_14" data-name="Gradiente sem nome 14" x1="-4339.59" y1="3040.37" x2="-4337.53" y2="3187.06" gradientTransform="translate(1708.52 5312.86) rotate(107.78)" gradientUnits="userSpaceOnUse">
      <stop offset=".22" stop-color="#ffe26c"/>
      <stop offset=".25" stop-color="#ffe371"/>
      <stop offset=".57" stop-color="#fff1b8"/>
      <stop offset=".8" stop-color="#fffbeb"/>
      <stop offset=".92" stop-color="#fff"/>
    </linearGradient>
    <clipPath id="clippath-4">
      <path class="cls-7" d="M75.3,255.65c-15.66-5.19-31.06-11.99-44.18-22.11-5.74-4.65-13.1-11.28-13.56-19.09-.02-1.06.12-2.11.43-3.12l5.37-16.75c-3.68,13.5,20.42,27.97,30.59,33.23,23.17,12.14,64.42,24.41,90.07,17.27h.03c4.36-1.37,9.11-3.79,10.62-8.41-.36.94-5.61,18.07-6.09,18.41-2.06,3.62-6.06,5.54-9.89,6.76-8.88,2.6-18.32,2.38-27.47,1.58-12.2-1.2-24.24-3.98-35.9-7.77h0Z"/>
    </clipPath>
    <linearGradient id="Gradiente_sem_nome_13-8" data-name="Gradiente sem nome 13" x1="-4379.7" y1="2752.45" x2="-4523.92" y2="2843.14" gradientTransform="translate(3121.58 4551.1) rotate(90)" xlink:href="#Gradiente_sem_nome_13"/>
    <linearGradient id="Gradiente_sem_nome_14-2" data-name="Gradiente sem nome 14" x1="-4406.55" y1="2732.68" x2="-4404.9" y2="2850.68" gradientTransform="translate(4787.21 2872.14) rotate(63.83)" xlink:href="#Gradiente_sem_nome_14"/>
    <clipPath id="clippath-5">
      <path class="cls-7" d="M356.92,159.35c-11.97,5.73-24.69,10.39-37.93,11.85-5.92.51-13.88.78-18.51-3.49-.61-.6-1.11-1.29-1.49-2.05l-6.25-12.71c5.4,9.88,27.45,4.8,36.27,2.17,20.19-5.9,50.95-21.82,61.81-40.28h0c1.76-3.24,3.16-7.29,1.45-10.81.31.75,6.84,13.6,6.75,14.06.83,3.25-.42,6.59-1.96,9.43-3.7,6.47-9.28,11.6-15.04,16.25-7.74,6.12-16.26,11.22-25.13,15.54v.02Z"/>
    </clipPath>
    <linearGradient id="Gradiente_sem_nome_13-9" data-name="Gradiente sem nome 13" x1="-4050.49" y1="3212.97" x2="-4319.17" y2="3381.9" gradientTransform="translate(3430.18 4209.73) rotate(90)" xlink:href="#Gradiente_sem_nome_13"/>
    <linearGradient id="Gradiente_sem_nome_14-3" data-name="Gradiente sem nome 14" x1="-4100.44" y1="3175.98" x2="-4097.36" y2="3395.81" gradientTransform="translate(4894.57 2394.43) rotate(64.4)" xlink:href="#Gradiente_sem_nome_14"/>
    <clipPath id="clippath-6">
      <path class="cls-7" d="M193.34,137.35c-22.4,10.45-46.18,18.9-70.88,21.38-11.04.84-25.87,1.19-34.41-6.84-1.11-1.13-2.05-2.42-2.73-3.84l-11.4-23.78c9.89,18.51,51.03,9.45,67.52,4.72,37.71-10.62,95.29-39.71,115.88-73.87v-.02c3.36-5.98,6.03-13.5,2.92-20.08.57,1.4,12.48,25.47,12.31,26.32,1.49,6.06-.9,12.28-3.83,17.55-6.99,11.98-17.5,21.45-28.3,29.99-14.54,11.25-30.51,20.6-47.1,28.49h0Z"/>
    </clipPath>
  </defs>
  <g id="OBJECTS">
    <g id="OBJECTS-2" data-name="OBJECTS">
      <g>
        <g>
          <path class="cls-8" d="M453.46,1036.08l-5.64-89.01,83.24,1.84c-6.77,37.8-6.74,73.4.09,106.79l-77.7-19.64h0Z"/>
          <path class="cls-1" d="M532.6,1057.21l-79.41-20.07.26-1.03-1.09.04-5.72-90.22,85.74,1.9-.23,1.27c-6.71,37.49-6.68,73.28.09,106.37l.35,1.73ZM454.52,1035.19l75.21,19.01c-6.41-32.51-6.4-67.55.02-104.21l-80.74-1.79,5.51,86.99Z"/>
        </g>
        <g>
          <g>
            <path class="cls-13" d="M449.42,1026.86s-20.62,27.73-13.21,72.19c2.69,16.19,36.86,2.69,56.19,18.43,19.33,15.74,77.31,30.29,115.99,16.64,22.93-8.09,24.28-32.78,10.34-50.11-13.94-17.33-55.8-25.21-84.52-51.04-13.49-12.14-29.22,9.1-45.85,9-26.2-.17-32.33-22.52-38.93-15.09h0Z"/>
            <g class="cls-25">
              <path class="cls-1" d="M425.68,1065.03s11.09,15.4,34.95,15.26c54-.36,50.64,52.04,125.08,47.54,44.43-2.69,50.02-20.21,50.02-20.21l-2.43,34.56-211.3,10.71,3.69-87.86h0Z"/>
            </g>
            <path class="cls-1" d="M572.42,1140.7c-32.42,0-66.33-10.65-80.73-22.37-9.17-7.47-21.8-8.15-32.94-8.76-11.87-.64-22.11-1.2-23.64-10.35-3.86-23.19-.02-41.79,3.87-53.3,4.24-12.51,9.33-19.44,9.54-19.73l2-2.69v1.09c2.94-1.4,5.96,1.2,9.61,4.32,5.49,4.71,13.79,11.83,28.22,11.92,6.47.07,12.88-3.33,19.1-6.59,9.28-4.86,18.87-9.87,27.48-2.12,14.73,13.26,33.03,21.78,49.17,29.3,15.33,7.14,28.57,13.31,35.47,21.87,8.08,10.04,11.13,22.3,8.14,32.8-2.52,8.86-9.26,15.62-18.97,19.06-11.02,3.89-23.56,5.54-36.33,5.54ZM450.23,1027.62c-1.33,1.87-19.95,29.13-12.94,71.25,1.23,7.39,10.21,7.88,21.57,8.5,11.48.62,24.49,1.33,34.22,9.25,19.22,15.65,77.23,29.76,114.92,16.45,9.15-3.23,15.23-9.31,17.58-17.57,2.79-9.8-.11-21.32-7.74-30.8-6.57-8.16-19.59-14.23-34.68-21.25-16.28-7.58-34.74-16.18-49.72-29.66-7.47-6.72-15.58-2.48-24.97,2.44-6.46,3.38-13.13,6.86-20.15,6.84-15.24-.1-23.91-7.54-29.65-12.46-5.03-4.32-6.51-5.18-8.44-3h-.01Z"/>
          </g>
          <path class="cls-16" d="M503.96,1060.13l-1.92-1.11c13.92-24.08,41.9-13.4,42.18-13.29l-.81,2.06c-.07-.03-6.75-2.6-14.94-2.34-10.84.36-19.09,5.29-24.51,14.68Z"/>
          <path class="cls-16" d="M515.92,1070.68l-1.92-1.11c13.92-24.08,41.9-13.4,42.18-13.29l-.81,2.06c-.07-.03-6.75-2.63-14.94-2.34-10.84.36-19.09,5.29-24.51,14.68Z"/>
          <path class="cls-16" d="M526.45,1080.83l-1.92-1.11c13.92-24.08,41.89-13.4,42.18-13.29l-.81,2.06c-.07-.03-6.75-2.6-14.94-2.34-10.84.36-19.09,5.29-24.51,14.68Z"/>
        </g>
        <g>
          <path class="cls-10" d="M257.41,1042.53l22.75-86.24-82.02-14.29c-.66,38.38-7.59,73.3-20.75,104.76l80.02-4.23Z"/>
          <path class="cls-1" d="M175.69,1047.96l.68-1.63c13.06-31.2,20.01-66.31,20.67-104.35l.02-1.29,84.49,14.72-23.27,88.19-82.59,4.37ZM199.22,943.31c-.78,37.17-7.56,71.55-20.14,102.25l77.46-4.1,22.24-84.29-79.56-13.86Z"/>
        </g>
        <path class="cls-1" d="M198.56,983.15s19.54,31.29,67.65,26.02l7.95-26.02h-75.6Z"/>
        <path class="cls-1" d="M527.29,986.98s-26.95,35.13-75.04,29.88l-4.42-32.64,79.46,2.76h0Z"/>
        <g>
          <path class="cls-11" d="M366.45,452.49s-149.13,327-193.67,517.9c0,0,66.41,45.4,142.01,9.39,0,0,118.24-391.29,127.44-390.14,9.19,1.15-26.51,179.41-35.08,396.73,0,0,57.83,31.31,133.99,0,0,0,33.61-192.86,39.8-558.92l-214.49,25.05h0Z"/>
          <g class="cls-23">
            <ellipse class="cls-1" cx="503.38" cy="472.9" rx="56.97" ry="134.07" transform="translate(-52.05 883.42) rotate(-79.68)"/>
          </g>
          <path class="cls-1" d="M472.35,1001.37c-10.27,0-19.35-.92-26.94-2.16-23.89-3.9-38.64-11.78-38.79-11.86l-.61-.33.03-.69c5.03-127.53,19.19-239.95,28.56-314.34,5.37-42.61,9.64-76.54,7.53-80.98-9.71,11.03-80.47,237.5-126.28,389.1l-.14.47-.44.21c-39.36,18.75-76.16,15.18-100.11,8.88-25.94-6.82-42.83-18.24-43-18.36l-.63-.43.17-.74c44.06-188.82,192.25-514.83,193.74-518.1l2.12-4.64v3.87l214.51-25.05-.02,1.27c-3.2,189.13-13.86,331.06-22.23,416.82-9.08,92.94-17.51,141.79-17.59,142.27l-.11.6-.56.23c-25.93,10.66-49.71,13.96-69.21,13.97ZM408.28,985.71c6.36,3.15,61.5,28.55,131.87-.13.99-5.86,8.94-54.22,17.47-141.54,8.35-85.52,18.97-226.94,22.19-415.34l-212.61,24.83c-7.12,15.69-149.82,331.43-193.16,516.35,6.94,4.42,69.75,42.2,139.83,9.11,2.27-7.49,30.85-101.92,60.13-195.04,61.69-196.21,66.01-195.7,68.36-195.4,2.42.3,3.33,4.01,1.55,23.4-1.3,14.17-3.87,34.54-7.11,60.32-9.35,74.22-23.47,186.3-28.52,313.45Z"/>
        </g>
        <g>
          <path class="cls-20" d="M164.11,270.37c-4.38,63.83,89.35,148.84,167.24,165.06,0,0,80.5,138.91,283.02,29.87,0,0,150.5,56.87,168.39-31.58,19.89-98.27-155.75-180.76-230.55-208.64-74.8-27.88-233.19-12.3-233.19-12.3l-25.12,70.2-115.1-8.6-14.69-4.01h0Z"/>
          <g class="cls-21">
            <path class="cls-3" d="M217.24,286.33c-6.57,58.83,32.85,101.3,100.4,133.77-82.02-30.1-118.65-59.69-138.6-138.64l38.2,4.87Z"/>
          </g>
          <path class="cls-1" d="M471.28,508.18c-26.93,0-52.05-5.34-74.84-15.92-42.5-19.74-63.28-51.76-65.79-55.85-37.67-7.97-80.44-32.19-114.54-64.87-35.81-34.32-55.17-71.22-53.11-101.26l1.12.04.28-1.02,14.58,3.98,114.15,8.53,25.07-70.07.7-.07c1.59-.15,159.5-15.28,233.69,12.36,20.59,7.67,92.34,35.98,151.04,78.06,61.94,44.39,88.93,88.75,80.21,131.84-3.68,18.21-13.25,31.69-28.42,40.08-46.8,25.87-133.73-4.86-140.98-7.51-46.17,24.8-89.8,38.67-129.67,41.23-4.55.29-9.04.44-13.49.44ZM165.13,271.81c-1.34,29.13,17.72,64.81,52.51,98.14,33.95,32.53,76.54,56.61,113.93,64.4l.48.1.25.43c.2.35,20.54,34.74,65.18,55.43,26.21,12.14,55.56,17.26,87.23,15.22,39.66-2.56,83.1-16.42,129.12-41.2l.44-.24.47.18c.91.35,91.87,34.2,139.6,7.81,14.58-8.06,23.77-21.04,27.32-38.57,8.53-42.15-18.16-85.76-79.33-129.6-58.49-41.92-130-70.13-150.53-77.78-71.19-26.53-220.47-13.37-232-12.3l-25.16,70.33-116.15-8.7-13.37-3.65Z"/>
        </g>
        <path class="cls-1" d="M549.27,393.59c-27,29.3-46.23-3.86-21.27-39.56,24.96-35.7,38.68-18.52,38.68-18.52l-17.41,58.1h0Z"/>
        <path class="cls-1" d="M221.21,328.55c-34.87-7.23-72.93-53.56-52.38-72.84,20.55-19.28,60.91,8.89,60.91,8.89l-8.53,63.95h0Z"/>
        <g>
          <g>
            <path class="cls-9" d="M577.89,102.69c-1.07-47.39-31.76-62.35-59.56-60.67-27.42,1.66-44.98,24.53-50.68,72.91-6.02,51.07,17.54,67.52,37.8,70.12l-6.9,40.04c-5.93,28.71,47.1,33.54,53.65,0l13.36-77.62c3.5,1.99,7.54,3.16,11.85,3.16,13.24,0,23.97-10.73,23.97-23.97s-10.49-23.71-23.52-23.96h.03Z"/>
            <path class="cls-1" d="M522.31,249.47c-7.31,0-14.35-2.24-19.08-6.42-5.15-4.55-7.17-11.01-5.69-18.18l6.71-38.96c-14.42-2.19-44.41-13.62-37.63-71.11,5.57-47.24,22.95-72.08,51.64-73.81,16.57-1,31.56,3.86,42.22,13.66,11.57,10.65,17.76,26.48,18.41,47.05,13.27.77,23.52,11.54,23.52,24.95s-11.22,25-25,25c-3.82,0-7.62-.9-11.08-2.61l-13.12,76.22c-2.12,10.86-9.11,18.8-19.68,22.39-3.63,1.23-7.47,1.83-11.23,1.83ZM522.49,42.92c-1.36,0-2.72.04-4.1.12-27.56,1.67-44.29,25.89-49.72,72-6.74,57.12,23.57,67.27,36.91,68.98l1.07.14-7.08,41.1c-1.35,6.54.39,12.15,5.03,16.25,6.64,5.86,18.27,7.59,28.29,4.19,5.7-1.93,15.65-7.21,18.31-20.81l13.61-79.04,1.27.72c3.48,1.98,7.4,3.02,11.34,3.02,12.65,0,22.95-10.29,22.95-22.95s-9.89-22.69-22.52-22.93v-1.03s-.98.02-.98.02c-.47-20.46-6.44-36.12-17.77-46.55-9.36-8.61-22.24-13.25-36.6-13.25Z"/>
          </g>
          <path class="cls-1" d="M505.45,183.99c11.97,1.51,28.03-5.82,38.53-16.66,0,0-10.43,33.75-41.48,33.75l2.95-17.09Z"/>
          <path class="cls-1" d="M576.14,104.52c-12.45,2.92-17.99,18.31-17.99,18.31,0,0-2.59-28.27.08-56.53,0,0-10.39,12.8-21.75,11.12-11.36-1.68-11.36-14.01-11.36-14.01,0,0-10.87,7.74-19.81,7.5s-7.74-13.04-7.74-13.04c0,0-3.06,14.95-19.77,15.7,0,0,1.17-38.16,60.37-33.57,59.19,4.59,48.53,65.7,48.53,65.7,0,0-4.5-2.57-10.57-1.14v-.03Z"/>
          <path class="cls-1" d="M589.71,137.98c-.19,0-.39-.06-.56-.17-.45-.31-.56-.92-.25-1.37,2.65-3.83,3.3-9.3,1.61-13.62-1.23-3.16-3.54-5.26-6.5-5.92-4.1-.92-7.63.26-10.49,3.49-2.19,2.48-3.15,5.25-3.16,5.27-.17.51-.74.79-1.25.61-.51-.17-.79-.73-.62-1.24.04-.13,4.42-12.63,15.94-10.05,3.61.81,6.42,3.34,7.9,7.12,1.94,4.97,1.23,11.03-1.83,15.45-.19.28-.5.42-.81.42Z"/>
          <g>
            <path class="cls-1" d="M479.68,107.08c2.35,0,4.26,4.78,4.26,10.68s-1.91,10.68-4.26,10.68-4.26-4.78-4.26-10.68,1.91-10.68,4.26-10.68Z"/>
            <path class="cls-1" d="M481.78,108.46c-2.44-6-9.1-4.22-10.1,1.91l10.1-1.91Z"/>
          </g>
          <g>
            <ellipse class="cls-1" cx="515.48" cy="123.98" rx="4.26" ry="10.68"/>
            <path class="cls-1" d="M517.57,114.68c-2.44-6-9.1-4.22-10.1,1.91l10.1-1.91Z"/>
          </g>
          <path class="cls-1" d="M531.29,109.15c-.49,0-.92-.37-.97-.87-1.61-14.43-9.44-16.2-11.8-16.4-4.17-.34-7.96,2.1-9.02,5.81-.15.52-.69.83-1.21.67-.52-.15-.82-.69-.68-1.21,1.32-4.62,5.96-7.65,11.08-7.23,5.64.47,12.18,5.49,13.59,18.14.06.54-.33,1.02-.87,1.08-.04,0-.07,0-.11,0Z"/>
          <path class="cls-1" d="M491.19,97.91s-.06,0-.09,0c-.54-.05-.94-.52-.89-1.06.37-4.34-2.89-8.94-6.84-9.65-3.74-.68-6.86,2.37-8.53,8.35-.15.52-.68.83-1.21.68-.52-.15-.83-.69-.68-1.21,1.96-6.98,5.98-10.63,10.77-9.76,4.96.9,8.91,6.39,8.45,11.75-.04.51-.47.9-.98.9Z"/>
          <path class="cls-1" d="M500.33,146.15c-.05,0-.1,0-.15-.01-.46-.07-11.29-1.84-12.78-7.97-1.49-6.13,8.18-13.15,8.59-13.45.44-.31,1.06-.21,1.37.23.31.44.22,1.05-.23,1.37-2.51,1.8-8.81,7.36-7.83,11.39.98,4.03,8.4,6.05,11.18,6.49.54.08.9.59.82,1.12-.08.48-.49.83-.97.83Z"/>
          <path class="cls-18" d="M492.33,138.62s9.26,4.23,10.06,1.86c.8-2.37-2.64-10.4-5.03-10.93-2.39-.53-7.59,6.7-5.03,9.09h0Z"/>
          <path class="cls-1" d="M502.6,156.59c-4.35,0-7.26-1.07-7.51-1.17-.51-.19-.76-.76-.57-1.27.19-.51.76-.76,1.27-.57.52.19,12.73,4.64,25.08-6.43.4-.36,1.02-.33,1.39.08.36.4.33,1.02-.08,1.39-7.21,6.46-14.41,7.98-19.58,7.98Z"/>
        </g>
        <g>
          <path class="cls-19" d="M580.94,318.93s-28.63-31.15-41.97-50.19c-8.46-12.09-77.58-22.91-102.18-41.04-8.23-6.06-13.41,9.09,0,20.78,13.41,11.69,34.88,14.2,34.88,14.2,0,0-13.19,32.45-8.86,38.52,4.33,6.06,16.86,4.33,16.86,4.33,0,0,2.32,10.39,14.58,9.95,0,0-2.31,12.98,27.27,15.15,3.25,9.31,10.32,13.23,21.11,11.9l5.86,50.4s35.01-35.49,32.44-73.99Z"/>
          <path class="cls-1" d="M547.73,395.17l-5.99-51.52c-10.52,1-17.56-3.06-20.95-12.06-12.77-1.02-21.28-4.17-25.31-9.35-1.79-2.3-2.21-4.45-2.28-5.73-9.93-.15-13.35-7.32-14.25-9.87-3.02.29-12.98.75-16.97-4.84-.74-1.04-3-4.21,2.67-22.43,2.11-6.8,4.57-13.23,5.6-15.84-4.94-.75-22.38-4.04-34.12-14.26-9.41-8.2-10.01-18.05-6.83-22.02,1.55-1.93,4.49-3.04,8.12-.36,12.51,9.22,37.03,16.63,58.66,23.18,21.16,6.4,39.43,11.93,43.75,18.09,13.14,18.76,41.6,49.77,41.88,50.09l.24.27.02.36c2.58,38.52-32.38,74.43-32.73,74.79l-1.51,1.53ZM543.54,341.37l5.73,49.22c6.6-7.3,32.67-38.34,30.67-71.24-2.84-3.1-29.24-32.09-41.81-50.03-3.91-5.58-22.73-11.28-42.66-17.31-21.79-6.59-46.49-14.07-59.28-23.49-2.15-1.58-4.03-1.59-5.29,0-2.6,3.24-1.75,11.93,6.58,19.18,13.01,11.34,34.11,13.93,34.33,13.95l1.34.16-.51,1.25c-5.02,12.34-11.89,33.45-8.98,37.53,3.91,5.48,15.77,3.92,15.89,3.9l.94-.13.21.92c.09.39,2.27,9.53,13.54,9.15l1.27-.05-.22,1.25c-.01.09-.38,2.55,1.89,5.41,2.58,3.27,8.92,7.4,24.44,8.54l.67.05.22.64c3.08,8.83,9.62,12.49,20.01,11.22l1.03-.13Z"/>
        </g>
        <path class="cls-1" d="M478.7,305.81c-2.21-7.29,8.24-34.66,8.69-35.83l1.92.74c-2.97,7.73-10.31,29-8.64,34.49l-1.97.6Z"/>
        <path class="cls-1" d="M493.69,318.93c-2.21-7.28,8.32-35.13,8.77-36.31l1.92.73c-2.99,7.87-10.39,29.49-8.72,34.99l-1.97.6Z"/>
        <path class="cls-1" d="M518.06,314.4l-1.77-1.05c4.79-8.04,5.89-20.39,5.9-20.51l2.05.17c-.04.52-1.14,12.94-6.18,21.39Z"/>
        <path class="cls-1" d="M521.6,331.64l-.13-2.05c2-.13,4.65-.67,5.94-2.53.91-1.3,1.02-3.13.33-5.43-1.75-5.89-13.99-8.23-14.11-8.25l.38-2.02c.55.1,13.6,2.6,15.71,9.69.87,2.93.66,5.35-.62,7.19-1.39,2-3.98,3.17-7.49,3.4Z"/>
        <path class="cls-1" d="M241.26,170.82l194.15,49.38c2,.5,3.41,2.31,3.41,4.38v124.92c0,3.01-2.89,5.19-5.78,4.34l-194.15-56.69c-1.92-.56-3.25-2.34-3.25-4.34v-117.61c0-2.95,2.77-5.11,5.64-4.38h-.01Z"/>
        <g>
          <path class="cls-12" d="M221.04,327.49s-13.88-84.36-15.64-93.14c-1.76-8.78,30.22-44.99,30.22-44.99v23.21s14.4,5.71,39.21,1.88c8.84-1.37,14.24,9.92,7.24,15.5-.24.19-.49.37-.76.56,0,0,10.55,1.05,12.3,8.44,1.75,7.39-6.67,14.41-6.67,14.41,0,0,7.51.34,6.93,9.49-.6,9.14-8.32,10.19-8.32,10.19,0,0,4.56,5.97,1.41,11.95-2.26,4.26-20.27,12.09-42.96,5.6-2.19.42-2.61,1.88-2.41,3.38.29,2.11,1.9,3.82,3.93,4.46l35.81,11.21s-10.77,27.4-60.28,17.87h0Z"/>
          <path class="cls-1" d="M240.38,330.51c-5.74,0-12.23-.6-19.53-2.01l-.83-.16v-.78c-.51-3.07-13.91-84.48-15.62-93.02-1.81-9.02,27.15-42.13,30.46-45.88l1.8-2.04v25.19c3.05,1.01,16.71,4.88,38.02,1.6,5.27-.81,9.2,2.42,10.77,5.99,1.63,3.71.92,7.68-1.76,10.45,3.4.78,9.55,2.98,10.94,8.83,1.42,5.98-3.09,11.55-5.55,14.06,1.1.37,2.46,1.06,3.59,2.33,1.69,1.89,2.44,4.52,2.23,7.81-.48,7.3-5.24,9.89-7.72,10.75,1.25,2.19,3.26,6.95.69,11.81-2.49,4.7-20.94,12.65-43.9,6.18-1.13.28-1.53.93-1.36,2.19.23,1.65,1.49,3.07,3.22,3.61l36.86,11.54-.4,1.03c-.09.24-8.52,20.51-41.89,20.51ZM221.94,326.62c24.71,4.61,39.25-.3,47.12-5.27,6.58-4.15,9.71-9.03,10.81-11.1l-34.67-10.86c-2.48-.78-4.3-2.86-4.64-5.3-.32-2.42.86-4.07,3.24-4.53l.24-.05.24.07c22.27,6.37,39.76-1.29,41.77-5.09,2.8-5.31-1.27-10.8-1.32-10.85l-1.06-1.4,1.74-.24c.28-.04,6.9-1.08,7.43-9.24.17-2.72-.4-4.85-1.71-6.31-1.75-1.95-4.21-2.09-4.24-2.09l-2.64-.12,2.03-1.7c.08-.07,7.91-6.71,6.33-13.38-1.56-6.58-11.3-7.64-11.4-7.65l-2.75-.28,2.27-1.59c.25-.18.49-.35.71-.53,3.28-2.61,3.24-6.31,2.11-8.89-1.25-2.85-4.39-5.44-8.57-4.78-24.81,3.82-39.15-1.71-39.74-1.94l-.65-.26v-21.17c-12.59,14.49-29.35,36.26-28.19,42.05,1.66,8.28,14.2,84.35,15.53,92.48Z"/>
        </g>
        <path class="cls-1" d="M260.06,234.62c-18.1,0-28.69-7.05-29.28-7.45l1.16-1.7s4.77,3.2,13.15,5.27c7.73,1.91,20.24,3.24,35.96-1.25l.56,1.98c-8.03,2.29-15.24,3.15-21.55,3.15Z"/>
        <path class="cls-1" d="M267.09,256.76c-18.1,0-28.69-7.05-29.28-7.45l1.16-1.7s4.77,3.2,13.15,5.27c7.73,1.91,20.24,3.24,35.96-1.25l.56,1.98c-8.03,2.29-15.24,3.15-21.55,3.15Z"/>
        <path class="cls-1" d="M267.82,275.43c-18.86,0-29.37-5.92-29.94-6.24l1.03-1.78c.18.1,18.04,10.1,48.63,3.92l.41,2.02c-7.49,1.51-14.21,2.09-20.12,2.09Z"/>
        <path class="cls-1" d="M613.93,466.23c-56.26-26.78-73.13-45.21-94.49-68.54l1.52-1.39c21.21,23.16,37.96,41.46,93.86,68.07l-.88,1.86Z"/>
        <path class="cls-1" d="M665.38,367.12c-56.57-23.37-84.83-47.18-85.11-47.41l1.33-1.57c.28.24,28.32,23.85,84.56,47.08l-.79,1.9Z"/>
        <path class="cls-1" d="M330.43,435.91c-3.66-7.28-3.96-13.69-.89-19.06,7.18-12.53,30.32-15.22,35.26-15.65,3.26-42.71,25.96-77.27,26.19-77.62l1.71,1.14c-.23.34-22.94,34.94-25.92,77.5l-.06.9-.9.06c-.27.02-27.18,1.9-34.5,14.69-2.71,4.73-2.39,10.49.94,17.11l-1.84.93Z"/>
        <path class="cls-1" d="M574.91,440.96c-3.57,0-7.05-.78-10.39-2.35l.88-1.86c10.33,4.86,20.15.57,26.57-3.89,19.44-13.51,34.75-46.04,32.77-69.62-.65-7.79-3.6-18.09-13.94-22.95l.88-1.86c8.88,4.18,14.1,12.7,15.11,24.64,2.03,24.21-13.69,57.62-33.64,71.48-6.14,4.27-12.3,6.42-18.23,6.42Z"/>
        <path class="cls-1" d="M247.28,363.24c-28.04,0-54.5-17.76-54.81-17.98l1.16-1.7c.37.25,37.39,25.09,69.6,15.38,16.11-4.85,28.43-17.52,36.64-37.63l1.9.78c-8.46,20.72-21.23,33.79-37.96,38.83-5.45,1.64-11.02,2.33-16.53,2.33Z"/>
        <path class="cls-1" d="M442.23,589.64c-37.24-9.86-54.65-17.78-56.91-8.46-2.26,9.31,32.37,69.34,32.37,69.34l24.53-60.87Z"/>
        <g>
          <g>
            <path class="cls-14" d="M265.75,1026.86s20.62,27.73,13.21,72.19c-2.69,16.19-36.86,2.69-56.19,18.43-19.33,15.74-77.31,30.29-115.99,16.64-22.93-8.09-24.28-32.78-10.34-50.11,13.94-17.33,55.8-25.21,84.52-51.04,13.49-12.14,29.22,9.1,45.85,9,26.2-.17,32.33-22.52,38.93-15.09h0Z"/>
            <g class="cls-26">
              <path class="cls-1" d="M289.47,1065.03s-11.09,15.4-34.95,15.26c-54-.36-50.64,52.04-125.08,47.54-44.43-2.69-50.02-20.21-50.02-20.21l2.43,34.56,211.3,10.71-3.69-87.86Z"/>
            </g>
            <path class="cls-1" d="M142.75,1140.7c-12.77,0-25.31-1.65-36.33-5.54-9.72-3.43-16.46-10.2-18.97-19.06-2.98-10.49.06-22.75,8.14-32.8,6.89-8.56,20.13-14.73,35.47-21.87,16.14-7.52,34.44-16.04,49.17-29.3,8.61-7.75,18.21-2.73,27.48,2.12,6.22,3.26,12.63,6.67,19.1,6.59,14.43-.09,22.73-7.21,28.22-11.92,3.65-3.13,6.66-5.72,9.61-4.32v-1.08l2,2.67c.21.28,20.81,28.62,13.42,73.03-1.52,9.15-11.77,9.7-23.64,10.35-11.14.61-23.77,1.29-32.95,8.76-14.39,11.72-48.31,22.37-80.73,22.37ZM190.32,1030.31c-2.98,0-5.84.98-8.61,3.48-14.98,13.48-33.44,22.07-49.72,29.66-15.08,7.03-28.11,13.09-34.68,21.25-7.63,9.48-10.52,21-7.74,30.8,2.35,8.27,8.43,14.34,17.58,17.57,37.69,13.3,95.7-.81,114.92-16.45,9.73-7.92,22.74-8.63,34.22-9.25,11.37-.62,20.34-1.1,21.57-8.5,7.01-42.11-11.61-69.37-12.94-71.25h-.01c-1.93-2.18-3.41-1.33-8.44,2.99-5.74,4.92-14.4,12.36-29.65,12.46-6.97.03-13.68-3.46-20.15-6.84-5.91-3.09-11.31-5.92-16.36-5.92Z"/>
          </g>
          <path class="cls-16" d="M211.2,1060.13c-12.97-22.45-39.18-12.45-39.45-12.34l-.81-2.06c.28-.11,28.26-10.79,42.18,13.29l-1.92,1.11Z"/>
          <path class="cls-16" d="M199.25,1070.68c-5.42-9.38-13.67-14.32-24.51-14.68-8.19-.29-14.87,2.31-14.94,2.34l-.81-2.06c.28-.11,28.26-10.79,42.18,13.29l-1.92,1.11Z"/>
          <path class="cls-16" d="M188.71,1080.83c-5.42-9.39-13.67-14.32-24.51-14.68-8.18-.26-14.87,2.31-14.94,2.34l-.81-2.06c.28-.11,28.26-10.79,42.18,13.29l-1.92,1.11Z"/>
        </g>
        <path class="cls-1" d="M514.83,972.96l-2.04-.29c12.82-91.23,20.87-203.74,25.35-282.06,4.86-84.87,6.71-148.97,6.73-149.61l2.05.06c-.02.64-1.87,64.78-6.73,149.67-4.49,78.36-12.53,190.93-25.37,282.23Z"/>
        <path class="cls-1" d="M197.38,952.42l-1.98-.57c38.08-131.94,83.67-254.78,135.49-365.08l1.86.87c-51.78,110.21-97.33,232.94-135.38,364.78Z"/>
      </g>
    </g>
    <g>
      <g>
        <ellipse class="cls-6" cx="89.01" cy="215.64" rx="24.7" ry="68.94" transform="translate(-143.5 234.58) rotate(-72.23)"/>
        <path class="cls-1" d="M139.04,247.29c-2.69.46-5.66.75-8.91.86-13.94.47-31.33-2.38-48.97-8.04-17.64-5.66-33.45-13.44-44.51-21.93-11.33-8.69-16.39-17.18-14.24-23.89,4.4-13.72,37.1-15.09,74.44-3.12,17.64,5.66,33.45,13.44,44.51,21.93,11.33,8.69,16.39,17.18,14.24,23.89-1.66,5.19-7.44,8.73-16.57,10.3ZM39.18,186.03c-8.01,1.38-13.42,4.34-14.87,8.86h0c-1.85,5.77,3.09,13.68,13.55,21.71,10.89,8.35,26.48,16.03,43.91,21.61,17.43,5.59,34.58,8.41,48.29,7.94,13.18-.45,21.8-4.01,23.65-9.78,1.85-5.77-3.09-13.68-13.55-21.7-10.89-8.35-26.48-16.03-43.91-21.61-22.12-7.09-43.39-9.37-57.07-7.02Z"/>
      </g>
      <g>
        <path class="cls-17" d="M75.3,255.65c-15.66-5.19-31.06-11.99-44.18-22.11-5.74-4.65-13.1-11.28-13.56-19.09-.02-1.06.12-2.11.43-3.12l5.37-16.75c-3.68,13.5,20.42,27.97,30.59,33.23,23.17,12.14,64.42,24.41,90.07,17.27h.03c4.36-1.37,9.11-3.79,10.62-8.41-.36.94-5.61,18.07-6.09,18.41-2.06,3.62-6.06,5.54-9.89,6.76-8.88,2.6-18.32,2.38-27.47,1.58-12.2-1.2-24.24-3.98-35.9-7.77h0Z"/>
        <g class="cls-24">
          <g>
            <rect class="cls-16" x="75.05" y="229.3" width="60.38" height="38.95" transform="translate(-163.78 273.06) rotate(-72.23)"/>
            <rect class="cls-16" x="-2.43" y="202.46" width="60.38" height="38.95" transform="translate(-192.06 180.63) rotate(-72.23)"/>
            <rect class="cls-16" x="125.04" y="234.63" width="60.38" height="38.95" transform="translate(-134.13 324.36) rotate(-72.23)"/>
          </g>
        </g>
        <path class="cls-1" d="M133.46,264.07c-7.69,1.32-15.48.95-22.34.36-11.5-1.13-23.65-3.76-36.13-7.81l-.57-.2c-18.13-6.05-32.5-13.28-43.91-22.08-6.64-5.39-13.48-11.94-13.95-19.82-.02-1.21.14-2.37.48-3.47l5.38-16.77,1.91.57c-3.75,13.76,24.4,29.15,30.08,32.09,25.42,13.32,65.37,23.86,89.34,17.2,5.34-1.67,8.66-4.19,9.87-7.48.05-.16.09-.27.12-.34l1.87.67c-.04.11-.08.23-.12.34-.22.66-.73,2.28-1.26,3.98-3.63,11.53-4.42,13.76-4.83,14.35-2.42,4.19-7.1,6.08-10.41,7.14-1.82.53-3.67.95-5.52,1.27ZM76.18,254.91c12.14,3.9,23.96,6.44,35.12,7.54,8.31.72,18.04,1.11,27.1-1.55,4.77-1.52,7.73-3.53,9.31-6.3l.12-.2c.54-1.18,2.64-7.8,4.01-12.13-1.89,1.53-4.39,2.79-7.49,3.76l-.13.03c-27.37,7.62-70.18-6.6-90.72-17.37-7.11-3.69-27.77-15.36-31.06-27.95l-3.49,10.89c-.27.89-.4,1.83-.39,2.79.42,7.06,6.91,13.24,13.2,18.33,11.33,8.74,25.69,15.92,43.87,21.94l.57.2Z"/>
      </g>
    </g>
    <g>
      <g>
        <ellipse class="cls-4" cx="342.52" cy="128.51" rx="55.46" ry="19.87" transform="translate(-21.57 164.23) rotate(-26.17)"/>
        <path class="cls-1" d="M389.02,118.9c-6.72,9.14-20.2,19.51-37.46,27.99-28.22,13.87-54.29,16.65-59.36,6.34h0c-5.07-10.31,13.07-29.25,41.29-43.12,28.22-13.87,54.29-16.65,59.36-6.34,1.97,4.01.43,9.31-3.83,15.12ZM293.3,152.7c4.68,9.53,30.58,6.44,57.72-6.9,27.14-13.34,45.42-31.94,40.73-41.48-4.68-9.53-30.58-6.44-57.72,6.9-27.14,13.34-45.41,31.94-40.73,41.48h0Z"/>
      </g>
      <g>
        <path class="cls-5" d="M356.92,159.35c-11.97,5.73-24.69,10.39-37.93,11.85-5.92.51-13.88.78-18.51-3.49-.61-.6-1.11-1.29-1.49-2.05l-6.25-12.71c5.4,9.88,27.45,4.8,36.27,2.17,20.19-5.9,50.95-21.82,61.81-40.28h0c1.76-3.24,3.16-7.29,1.45-10.81.31.75,6.84,13.6,6.75,14.06.83,3.25-.42,6.59-1.96,9.43-3.7,6.47-9.28,11.6-15.04,16.25-7.74,6.12-16.26,11.22-25.13,15.54v.02Z"/>
        <g class="cls-27">
          <g>
            <rect class="cls-16" x="354.76" y="114.36" width="31.34" height="48.57" transform="translate(-23.18 177.57) rotate(-26.17)"/>
            <rect class="cls-16" x="294.91" y="142.06" width="31.34" height="48.57" transform="translate(-41.53 154.02) rotate(-26.17)"/>
            <rect class="cls-16" x="386.7" y="89.54" width="31.34" height="48.57" transform="translate(-8.96 189.12) rotate(-26.17)"/>
          </g>
        </g>
        <path class="cls-1" d="M395.13,131.63c-3.71,5.05-8.42,9.17-12.71,12.63-7.12,5.63-15.42,10.79-24.69,15.34h0s-.55.29-.55.29c-14.03,6.73-26.51,10.62-38.13,11.91-6.81.58-14.38.61-18.99-3.65-.69-.68-1.23-1.42-1.62-2.23l-6.25-12.71,1.09-.56c5.59,10.21,30.6,3.36,35.55,1.88,22.2-6.49,51.29-22.72,61.46-40,2.19-4,2.71-7.38,1.54-10.02-.06-.12-.09-.2-.11-.25l1.12-.5c.04.08.08.16.11.25.24.49.83,1.68,1.49,3.02,4.44,8.92,5.14,10.49,5.2,10.98.7,2.84.06,5.96-2.03,9.81-.76,1.32-1.59,2.59-2.48,3.8ZM356.08,159.05l.56-.27c9.41-4.59,17.83-9.79,25.02-15.47,5.23-4.22,11.09-9.43,14.88-16.07,1.94-3.58,2.55-6.44,1.9-8.98l-.03-.15c-.31-.93-3.05-6.47-4.76-9.91-.13,2.09-.89,4.41-2.28,6.95l-.04.07c-11.57,19.65-44.26,35.28-62.14,40.51-6.29,1.87-25.39,6.82-34,.81l4.36,8.86c.34.68.8,1.32,1.37,1.88,4.25,3.91,11.5,3.87,18.03,3.31,11.31-1.25,23.48-5.03,37.15-11.53h0Z"/>
      </g>
    </g>
    <g>
      <g>
        <ellipse class="cls-15" cx="167.1" cy="79.63" rx="103.3" ry="37.02" transform="translate(-18 80.01) rotate(-25.6)"/>
        <path class="cls-1" d="M259.04,54.07c-2.94,5.67-7.65,11.84-14.05,18.31-14.65,14.81-36.49,29.56-61.47,41.53-24.99,11.97-50.16,19.74-70.89,21.87-21.07,2.17-35.13-1.77-39.59-11.09-4.47-9.32,1.27-22.75,16.17-37.81,14.65-14.81,36.49-29.56,61.47-41.53,24.99-11.97,50.16-19.74,70.89-21.87,21.07-2.17,35.13,1.77,39.6,11.09,2.55,5.32,1.77,11.97-2.12,19.5ZM76.87,106.15c-3.58,6.91-4.32,12.94-2.04,17.69h0c4.08,8.51,17.43,12.05,37.6,9.97,20.51-2.11,45.45-9.81,70.23-21.69,36.99-17.72,65.27-40.74,74.66-58.87,3.53-6.81,4.39-12.93,2.04-17.82-8.58-17.91-56.95-12.66-107.83,11.71-24.78,11.87-46.42,26.48-60.92,41.14-6.3,6.37-10.91,12.39-13.75,17.86Z"/>
      </g>
      <g>
        <path class="cls-2" d="M193.34,137.35c-22.4,10.45-46.18,18.9-70.88,21.38-11.04.84-25.87,1.19-34.41-6.84-1.11-1.13-2.05-2.42-2.73-3.84l-11.4-23.78c9.89,18.51,51.03,9.45,67.52,4.72,37.71-10.62,95.29-39.71,115.88-73.87v-.02c3.36-5.98,6.03-13.5,2.92-20.08.57,1.4,12.48,25.47,12.31,26.32,1.49,6.06-.9,12.28-3.83,17.55-6.99,11.98-17.5,21.45-28.3,29.99-14.54,11.25-30.51,20.6-47.1,28.49h0Z"/>
        <g class="cls-22">
          <g>
            <rect class="cls-16" x="189.67" y="53.81" width="58.37" height="90.49" transform="translate(-21.31 104.27) rotate(-25.6)"/>
            <rect class="cls-16" x="77.69" y="104.3" width="58.37" height="90.49" transform="translate(-54.12 60.84) rotate(-25.6)"/>
            <rect class="cls-16" x="249.61" y="8.17" width="58.37" height="90.49" transform="translate(4.29 125.69) rotate(-25.6)"/>
          </g>
        </g>
        <path class="cls-1" d="M270.34,77.98c-.24.46-.48.92-.74,1.38-7.37,12.62-18.57,22.39-28.56,30.29-13.6,10.53-29.51,20.15-47.29,28.61l-2.67,1.27.03-.06c-25.52,11.67-47.37,18.12-68.56,20.25-12.65.96-26.7.87-35.19-7.1-1.25-1.27-2.23-2.65-2.95-4.13l-11.4-23.79,1.78-.9c4.08,7.64,14.3,11.19,30.37,10.55,14.66-.58,30.06-4.61,36-6.31,41.49-11.69,96-41.39,115.3-73.43,4.18-7.46,5.21-13.76,3.06-18.75-.1-.22-.17-.38-.21-.46l1.82-.8c.07.15.14.31.21.46.43.93,1.51,3.14,2.71,5.63,7.73,15.96,9.24,19.35,9.45,20.41h0c1.22,4.95.21,10.34-3.18,16.89ZM193.76,136.05c17.3-8.29,32.79-17.7,46.06-27.97,9.83-7.77,20.86-17.39,28.05-29.7,3.71-6.68,4.89-12.04,3.72-16.81l-.05-.25c-.51-1.67-5.82-12.65-8.95-19.12-.18,4.01-1.65,8.49-4.39,13.38-21.98,36.47-83.11,64.96-116.49,74.36-11.85,3.4-48.09,12.38-63.71.55l8.21,17.12c.62,1.28,1.48,2.48,2.55,3.57,7.9,7.41,21.43,7.47,33.62,6.54,21.66-2.18,44.08-8.94,70.53-21.29l.84-.39Z"/>
      </g>
    </g>
  </g>
</svg>