<?xml version="1.0" encoding="UTF-8"?>
<svg id="Camada_2" data-name="Camada 2" xmlns="http://www.w3.org/2000/svg" xmlns:xlink="http://www.w3.org/1999/xlink" viewBox="0 0 1052.05 1132.96">
  <defs>
    <style>
      .cls-1 {
        fill: url(#Gradiente_sem_nome_11-2);
      }

      .cls-1, .cls-2, .cls-3, .cls-4, .cls-5, .cls-6, .cls-7, .cls-8, .cls-9, .cls-10, .cls-11, .cls-12, .cls-13, .cls-14, .cls-15, .cls-16, .cls-17, .cls-18, .cls-19, .cls-20, .cls-21, .cls-22, .cls-23 {
        stroke-width: 0px;
      }

      .cls-2 {
        fill: url(#Gradiente_sem_nome_10-5);
      }

      .cls-3 {
        fill: #000;
      }

      .cls-4 {
        fill: url(#Gradiente_sem_nome_10-2);
      }

      .cls-5 {
        fill: url(#Gradiente_sem_nome_11-3);
      }

      .cls-24 {
        clip-path: url(#clippath-2);
      }

      .cls-6 {
        fill: url(#Gradiente_sem_nome_10-7);
      }

      .cls-7 {
        fill: url(#Gradiente_sem_nome_10-4);
      }

      .cls-8 {
        fill: url(#Gradiente_sem_nome_11-4);
      }

      .cls-9 {
        fill: url(#Gradiente_sem_nome_1262);
      }

      .cls-10 {
        fill: none;
      }

      .cls-11 {
        fill: url(#Gradiente_sem_nome_1250);
      }

      .cls-25 {
        clip-path: url(#clippath-1);
      }

      .cls-26 {
        clip-path: url(#clippath-4);
      }

      .cls-12 {
        fill: url(#Gradiente_sem_nome_10);
      }

      .cls-13 {
        fill: url(#Gradiente_sem_nome_10-10);
      }

      .cls-14 {
        fill: url(#Gradiente_sem_nome_1149);
      }

      .cls-15 {
        fill: url(#Gradiente_sem_nome_11);
      }

      .cls-27 {
        clip-path: url(#clippath);
      }

      .cls-28 {
        clip-path: url(#clippath-3);
      }

      .cls-16 {
        fill: #fff;
      }

      .cls-17 {
        fill: url(#Gradiente_sem_nome_11-5);
      }

      .cls-18 {
        fill: url(#Gradiente_sem_nome_10-3);
      }

      .cls-19 {
        fill: url(#Gradiente_sem_nome_10-8);
      }

      .cls-20 {
        fill: url(#Gradiente_sem_nome_10-6);
      }

      .cls-21 {
        fill: url(#Gradiente_sem_nome_1132);
      }

      .cls-22 {
        fill: url(#Gradiente_sem_nome_1284);
      }

      .cls-23 {
        fill: url(#Gradiente_sem_nome_10-9);
      }
    </style>
    <linearGradient id="Gradiente_sem_nome_1250" data-name="Gradiente sem nome 1250" x1="-2205.26" y1="563.46" x2="-2146.16" y2="563.46" gradientTransform="translate(-1658.51 716.25) rotate(-180)" gradientUnits="userSpaceOnUse">
      <stop offset=".1" stop-color="#6f7eb2"/>
      <stop offset=".45" stop-color="#3775e4"/>
      <stop offset=".76" stop-color="#dbe8fd"/>
      <stop offset=".92" stop-color="#fff"/>
    </linearGradient>
    <linearGradient id="Gradiente_sem_nome_10" data-name="Gradiente sem nome 10" x1="-3157.39" y1="7.27" x2="-2935.56" y2="7.27" gradientTransform="translate(3751.13 716.25) scale(1 -1)" gradientUnits="userSpaceOnUse">
      <stop offset=".1" stop-color="#fff"/>
      <stop offset=".18" stop-color="#f7e8bc"/>
      <stop offset=".54" stop-color="#f9f0c3"/>
      <stop offset=".79" stop-color="#f5e8a5"/>
      <stop offset=".92" stop-color="#f4e59a"/>
    </linearGradient>
    <linearGradient id="Gradiente_sem_nome_11" data-name="Gradiente sem nome 11" x1="-2385.61" y1="-118.62" x2="-2474.09" y2="-118.62" gradientTransform="translate(-1658.51 716.25) rotate(-180)" gradientUnits="userSpaceOnUse">
      <stop offset=".1" stop-color="#4262d3"/>
      <stop offset=".14" stop-color="#4a68d5"/>
      <stop offset=".52" stop-color="#5883ed"/>
      <stop offset=".78" stop-color="#d0dcfa"/>
      <stop offset=".92" stop-color="#fff"/>
    </linearGradient>
    <linearGradient id="Gradiente_sem_nome_10-2" data-name="Gradiente sem nome 10" x1="-2921.36" y1="58.44" x2="-3480.06" y2="-71.36" xlink:href="#Gradiente_sem_nome_10"/>
    <linearGradient id="Gradiente_sem_nome_11-2" data-name="Gradiente sem nome 11" x1="-1935.57" y1="-150.05" x2="-2052.1" y2="-150.05" xlink:href="#Gradiente_sem_nome_11"/>
    <linearGradient id="Gradiente_sem_nome_1262" data-name="Gradiente sem nome 1262" x1="-3432.53" y1="141.11" x2="-3083.95" y2="141.11" gradientTransform="translate(3751.13 716.25) scale(1 -1)" gradientUnits="userSpaceOnUse">
      <stop offset=".1" stop-color="#003faf"/>
      <stop offset=".45" stop-color="#3b7fed"/>
      <stop offset=".76" stop-color="#c7d9fa"/>
      <stop offset=".92" stop-color="#fff"/>
    </linearGradient>
    <linearGradient id="Gradiente_sem_nome_10-3" data-name="Gradiente sem nome 10" x1="-2781.71" y1="580.47" x2="-3195.06" y2="418.83" xlink:href="#Gradiente_sem_nome_10"/>
    <clipPath id="clippath">
      <path class="cls-10" d="M661.96,252.07s111.62-26.15,117.69-29.89c6.06-3.74,34.24-86.12,38.91-89.39s8.88,2.59,8.88,2.59c1.66-6.75,10.04-23.44,11.69-.03,4.21-14.33,10.52-6.33,10.52,1.14,0,6.62-3.69,72.26,3.32,76.87,7.01,4.62,35.03-2.49,41.1,2.69,6.08,5.19.46,14.06-13.08,13.6s-56.6,14.53-65.17,19.53c-56.69,33.06-157.2,73.32-157.2,73.32l3.33-70.43h.01Z"/>
    </clipPath>
    <linearGradient id="Gradiente_sem_nome_10-4" data-name="Gradiente sem nome 10" x1="-3403.94" y1="420.56" x2="-3664.5" y2="318.67" xlink:href="#Gradiente_sem_nome_10"/>
    <linearGradient id="Gradiente_sem_nome_11-3" data-name="Gradiente sem nome 11" x1="-3489.35" y1="335.8" x2="-3046.19" y2="335.8" gradientTransform="translate(3751.13 716.25) scale(1 -1)" xlink:href="#Gradiente_sem_nome_11"/>
    <linearGradient id="Gradiente_sem_nome_10-5" data-name="Gradiente sem nome 10" x1="-3130.91" y1="532.84" x2="-3402.73" y2="443.16" xlink:href="#Gradiente_sem_nome_10"/>
    <linearGradient id="Gradiente_sem_nome_10-6" data-name="Gradiente sem nome 10" x1="-3273.85" y1="500.11" x2="-3422.72" y2="462.47" xlink:href="#Gradiente_sem_nome_10"/>
    <linearGradient id="Gradiente_sem_nome_10-7" data-name="Gradiente sem nome 10" x1="1940.68" y1="-742.49" x2="1696.55" y2="-742.49" gradientTransform="translate(2282.79 577.64) rotate(-169.18)" xlink:href="#Gradiente_sem_nome_10"/>
    <clipPath id="clippath-1">
      <path class="cls-10" d="M270.74,892.45s-25.46,23.36-26.52,68.42c-.38,16.4,35.7,9.57,51.74,28.65,16.04,19.08,70.25,44.25,110.8,38.11,24.04-3.65,30-27.65,19.56-47.27-10.44-19.64-50.09-35.23-73.44-65.99-10.97-14.45-30.41,3.46-46.73.23-25.7-5.08-27.53-28.18-35.41-22.13h0Z"/>
    </clipPath>
    <linearGradient id="Gradiente_sem_nome_11-4" data-name="Gradiente sem nome 11" x1="220.16" y1="-266.61" x2="438.59" y2="-266.61" gradientTransform="translate(0 716.25) scale(1 -1)" xlink:href="#Gradiente_sem_nome_11"/>
    <linearGradient id="Gradiente_sem_nome_1149" data-name="Gradiente sem nome 1149" x1="1066.13" y1="-475.08" x2="822" y2="-475.08" gradientTransform="translate(1766.57 406.53) rotate(177.51)" gradientUnits="userSpaceOnUse">
      <stop offset=".1" stop-color="#fff"/>
      <stop offset=".18" stop-color="#8490ae"/>
      <stop offset=".54" stop-color="#387be9"/>
      <stop offset=".79" stop-color="#3775e3"/>
      <stop offset=".89" stop-color="#376edf"/>
      <stop offset=".92" stop-color="#020094"/>
    </linearGradient>
    <clipPath id="clippath-2">
      <path class="cls-10" d="M742.95,870.91s-19.4,28.61-10.06,72.69c3.4,16.05,36.95,1.09,56.95,15.97,19.99,14.87,78.56,26.89,116.6,11.57,22.56-9.08,22.83-33.81,8.15-50.51-14.69-16.7-56.85-22.75-86.65-47.31-14-11.54-28.79,10.36-45.42,10.97-26.19.97-33.28-21.08-39.55-13.39h-.01Z"/>
    </clipPath>
    <linearGradient id="Gradiente_sem_nome_11-5" data-name="Gradiente sem nome 11" x1="720.91" y1="-237.79" x2="932.61" y2="-237.79" gradientTransform="translate(0 716.25) scale(1 -1)" xlink:href="#Gradiente_sem_nome_11"/>
    <clipPath id="clippath-3">
      <path class="cls-10" d="M432.06,240.61c-.09-1.82,1.75-3.1,3.46-2.48,6.25,2.27,21.04,5.81,36.34-3.85,6.89-4.35,1.99,17.59-14.62,23.78-14.59,5.43-24.69-7.68-25.18-17.45h0Z"/>
    </clipPath>
    <linearGradient id="Gradiente_sem_nome_10-8" data-name="Gradiente sem nome 10" x1="-4010.98" y1="-316.43" x2="-4271.52" y2="-454.7" gradientTransform="translate(4275.95 1113.31) rotate(16.29) scale(1 -1)" xlink:href="#Gradiente_sem_nome_10"/>
    <linearGradient id="Gradiente_sem_nome_10-9" data-name="Gradiente sem nome 10" x1="-2115.69" y1="80.08" x2="-2445.25" y2="-41.83" gradientTransform="translate(-1658.51 716.25) rotate(-180)" xlink:href="#Gradiente_sem_nome_10"/>
    <linearGradient id="Gradiente_sem_nome_10-10" data-name="Gradiente sem nome 10" x1="-1479.65" y1="327.93" x2="-2888.03" y2="3.62" gradientTransform="translate(-1342.86 -595.46) rotate(-147.79)" xlink:href="#Gradiente_sem_nome_10"/>
    <radialGradient id="Gradiente_sem_nome_1284" data-name="Gradiente sem nome 1284" cx="1172.53" cy="28.92" fx="1172.53" fy="28.92" r="345.62" gradientTransform="translate(757.85 -298.04) rotate(109.13) scale(1 -2.09)" gradientUnits="userSpaceOnUse">
      <stop offset=".1" stop-color="#b4cdfa"/>
      <stop offset=".21" stop-color="#5592f3"/>
      <stop offset=".38" stop-color="#3a84f1"/>
      <stop offset=".58" stop-color="#3872e1"/>
      <stop offset=".8" stop-color="#e3dfcb"/>
      <stop offset=".92" stop-color="#fff"/>
    </radialGradient>
    <clipPath id="clippath-4">
      <path class="cls-10" d="M1.88,755.94l475.24,79.98s10.11,249.75,309.23,236.31C366.73,1131.08,111.95,996.46,1.88,755.94Z"/>
    </clipPath>
    <radialGradient id="Gradiente_sem_nome_1132" data-name="Gradiente sem nome 1132" cx="796.03" cy="-161.03" fx="1456.16" fy="-415.7" r="707.56" gradientTransform="translate(489.79 596.58) rotate(65.59) scale(1 -1)" gradientUnits="userSpaceOnUse">
      <stop offset=".1" stop-color="#6f7eb2"/>
      <stop offset=".21" stop-color="#7685b6"/>
      <stop offset=".38" stop-color="#8c98c2"/>
      <stop offset=".58" stop-color="#adc8f9"/>
      <stop offset=".8" stop-color="#5c90e4"/>
      <stop offset=".92" stop-color="#fff"/>
    </radialGradient>
  </defs>
  <g id="OBJECTS">
    <g>
      <path class="cls-3" d="M783.98,1073.77c171.65-22.15,268.08-160.82,268.08-160.82l-349.77-76.54s-37.48,148.94-235.08,150.7c0,0,135.42,110.05,316.77,86.66Z"/>
      <g>
        <path class="cls-3" d="M532.8,137.99s-25.85-43.62,10.04-66.52c35.89-22.9,89.93,55.17,115.79,30.9,25.86-24.28,5.35-129.57,56.63-95.73,51.28,33.85,46.84,103.25,6.5,88.55-40.35-14.7-28.42,74.62-74.91,81.8-46.49,7.18-54.31-84.98-73.11-84.29-18.8.69-34.2,57.3-34.2,57.3l-6.74-11.99h0Z"/>
        <g>
          <circle class="cls-11" cx="517.2" cy="152.79" r="29.55"/>
          <path class="cls-3" d="M517.2,183.44c-16.9,0-30.66-13.75-30.66-30.66s13.75-30.66,30.66-30.66,30.66,13.75,30.66,30.66-13.75,30.66-30.66,30.66ZM517.2,124.35c-15.68,0-28.44,12.76-28.44,28.44s12.76,28.44,28.44,28.44,28.44-12.76,28.44-28.44-12.76-28.44-28.44-28.44Z"/>
        </g>
        <ellipse class="cls-3" cx="641.37" cy="607.08" rx="29.35" ry="47.99"/>
        <g>
          <path class="cls-12" d="M667.18,521.73c50.52,15.8,116.94,50.17,128.96,64.31,12.01,14.14,26.71,278.42,15.35,299.45-11.36,21.03-45.39,22.02-56.4,0-11.01-22.02-56.19-164.93-33.04-248.27l-118.73-8.65s-46.08-141.24,63.86-106.85h0Z"/>
          <path class="cls-3" d="M782.8,902.74c-.2,0-.4,0-.6,0-12.44-.2-22.95-6.46-28.09-16.76-9.71-19.41-56.29-162.47-33.47-247.75l-118.13-8.61-.23-.71c-.99-3.02-23.82-74.31,4.11-102.58,12.42-12.57,32.99-14.48,61.14-5.67,51.33,16.05,117.53,50.59,129.48,64.65,6.5,7.66,13.07,79.75,16.7,147.8,3.37,63.25,5.08,141.24-1.22,152.89-5.59,10.36-16.92,16.73-29.67,16.73ZM604.15,627.52l119.33,8.7-.36,1.3c-23.49,84.53,23.26,228.07,32.96,247.47,4.77,9.54,14.55,15.35,26.15,15.53,12.21.19,23-5.77,28.29-15.56,4.1-7.59,5.98-57.44.95-151.72-4.2-78.79-11-140.39-16.18-146.49-11.77-13.85-77.43-48.01-128.45-63.97h0c-27.3-8.54-47.11-6.82-58.9,5.11-7.75,7.84-16.12,24.67-12.03,60.33,2.19,19.12,7.12,35.73,8.23,39.3Z"/>
        </g>
        <g>
          <path class="cls-15" d="M727.11,790.86c15.24,9.66,52.3,26.77,87.67-5.94,1.53,49.18,1.01,90.58-2.99,99.91h-57.02c-5.44-11.34-18.18-48.84-27.68-93.96h.01Z"/>
          <path class="cls-3" d="M812.53,885.93h-58.45l-.3-.63c-5.7-11.89-18.46-50.05-27.76-94.21l-.28-1.34h1.69l.28.17c14.28,9.05,51.28,26.6,86.33-5.82l1.78-1.65.08,2.43c1.01,32.46,1.94,88.65-3.07,100.38l-.29.67ZM755.47,883.72h55.57c3.28-9.28,4.27-44.16,2.71-96.38-33.95,29.78-69.26,15.18-85.03,5.81,9.05,42.16,21.08,78.35,26.76,90.57Z"/>
        </g>
        <ellipse class="cls-3" cx="475.63" cy="669.62" rx="52.53" ry="56.44"/>
        <g>
          <path class="cls-4" d="M416.88,645.99s41.9,39.47,67.02,54.88c0,0-103.52,29.49-202.33,179.31-16.94,25.69,15.4,67.85,73.74,26.73,61.12-43.08,226.08-166.92,239.86-213.12,13.77-46.19-89.13-107.77-89.13-107.77l-89.13,59.97h-.01Z"/>
          <path class="cls-3" d="M310.36,925.24c-10.17,0-19.14-3.32-25.48-9.46-10.1-9.79-11.84-24.68-4.24-36.2,51.15-77.54,103.56-122.27,138.52-146.14,31.51-21.51,54.95-30.44,62.13-32.88-25.1-16.08-64.77-53.36-65.17-53.75l-2.03-1.91h2.47l89.44-60.18.6.36c.26.16,26.09,15.69,49.89,36.69,32.21,28.41,45.58,52.75,39.73,72.35-13.73,46.07-178.1,169.89-240.28,213.71-15.37,10.84-29.89,16.67-43.14,17.35-.82.04-1.63.06-2.44.06ZM418.66,646.14c6.57,6.12,43.25,39.95,65.82,53.79l2.15,1.32-2.42.69c-.26.07-26.23,7.66-63.9,33.4-34.77,23.76-86.91,68.28-137.82,145.46-7.01,10.62-5.39,24.35,3.93,33.39,11.53,11.18,35.51,14.9,68.25-8.17,62-43.7,225.88-167.06,239.43-212.53,12.83-43.02-79.65-100.99-88.04-106.14l-87.4,58.8Z"/>
        </g>
        <g>
          <path class="cls-1" d="M336.52,808.47c3,22.1,14.34,63.21,57.06,70.73-14.87,11.01-28.05,20.51-38.29,27.73-58.34,41.12-90.69-1.06-73.74-26.73,18.39-27.88,36.94-51.59,54.96-71.71h.01Z"/>
          <path class="cls-3" d="M310.35,925.25c-10.17,0-19.15-3.32-25.49-9.47-10.1-9.79-11.84-24.67-4.24-36.19,17.2-26.08,35.73-50.25,55.05-71.84l1.6-1.79.34,2.36c7.24,53.39,38.29,66.64,56.16,69.79l2.54.45-2.07,1.53c-17.3,12.81-30.39,22.16-38.31,27.74-15.38,10.84-29.89,16.67-43.15,17.35-.82.04-1.63.06-2.43.06ZM335.76,810.97c-18.66,21.02-36.59,44.52-53.29,69.83-7.01,10.62-5.39,24.34,3.93,33.38,11.53,11.18,35.51,14.91,68.25-8.16,7.61-5.36,19.96-14.19,36.24-26.22-17.83-3.78-31.85-13.84-41.69-29.93-8.1-13.23-11.78-28.07-13.45-38.91Z"/>
        </g>
        <path class="cls-3" d="M322.16,537.46s-89.8-27.42-61.46-70.77c22.29-34.1,80.56,8.98,80.56,8.98-20.21,15.52-21.22,41.42-19.11,61.79Z"/>
        <g>
          <path class="cls-9" d="M352.6,449.46s-50.1,41.86-28.67,112.07c27.97,91.64,108.13,139.33,108.13,139.33-20.98-41.28-1.84-71.87,51.29-83.28,53.14-11.41,87.94,19.98,87.94,19.98l-29.48-31.43s69.34,39.98,96.64,47.72c-36.08-13.15-45.92-122.21,28.72-132.15,0,0-75.45-30.98-141.09-41.52-65.64-10.53-173.5-30.75-173.5-30.75v.03Z"/>
          <path class="cls-3" d="M434.78,703.76l-3.29-1.96c-.81-.48-80.85-48.96-108.63-139.95-20.05-65.69,22.51-107.33,28.37-112.67l-.61-1.25,2.17.41c1.08.2,108.6,20.34,173.47,30.75,65.01,10.43,140.58,41.27,141.34,41.58l3.84,1.58-4.11.55c-14.65,1.95-49.29,11.79-54.65,60.91-3.39,31.05,8.59,62.7,26.16,69.1l-.68,2.11c-22.25-6.31-72.72-34.18-90.53-44.22l24.48,26.1-1.55,1.58c-.34-.31-35.04-30.88-86.96-19.72-28.23,6.06-47.2,17.76-54.85,33.83-6.42,13.48-4.97,29.59,4.32,47.86l1.73,3.41ZM352.95,450.62c-4.47,4-47.95,45.07-27.96,110.58,24.31,79.65,89.05,126.44,104.36,136.6-8.05-17.47-8.93-33.02-2.62-46.27,7.96-16.72,27.46-28.84,56.39-35.05,37.24-7.99,65.83,5.04,79.69,13.64l-26.92-28.7,6.47,3.73c.62.36,56.14,32.29,86.93,44.34-13.66-12.12-21.78-38.9-18.82-66.04,3.67-33.66,23.2-56.64,52.58-62.22-15.97-6.29-80.59-30.89-137.14-39.97-62.46-10.02-164.43-29.06-172.97-30.65Z"/>
        </g>
        <path class="cls-3" d="M536.42,487.4c-42.39,82.62-201.62,43.01-225.01,16.53l18.54-43.17,206.46,26.64h.01Z"/>
        <g>
          <path class="cls-18" d="M661.96,252.07s111.62-26.15,117.69-29.89c6.06-3.74,34.24-86.12,38.91-89.39s8.88,2.59,8.88,2.59c1.66-6.75,10.04-23.44,11.69-.03,4.21-14.33,10.52-6.33,10.52,1.14,0,6.62-3.69,72.26,3.32,76.87,7.01,4.62,35.03-2.49,41.1,2.69,6.08,5.19.46,14.06-13.08,13.6s-56.6,14.53-65.17,19.53c-56.69,33.06-157.2,73.32-157.2,73.32l3.33-70.43h.01Z"/>
          <g class="cls-27">
            <circle class="cls-3" cx="688.75" cy="287.3" r="35.2"/>
          </g>
          <path class="cls-3" d="M657.43,324.18l3.43-72.56.51-.54.33-.09c31-7.26,112.51-26.77,117.36-29.76,2.95-1.82,13.63-29.21,21.43-49.21,10.42-26.73,15.22-38.6,17.43-40.14,3.48-2.43,6.9-.7,9.02,1.28,1.43-4.24,4.7-11.28,8.31-10.97,2.23.19,3.69,2.89,4.5,8.41,1.89-3.78,3.92-4.48,5.46-4.26,3.32.48,5.55,5.64,5.55,10.15,0,1.04-.09,3.5-.21,6.9-1.57,43.46-.55,66.69,3.03,69.05,3.11,2.05,11.49,1.51,19.6.99,9.34-.6,18.16-1.16,21.62,1.78,2.59,2.21,3.47,5.25,2.35,8.13-1.41,3.63-6.5,7.76-16.19,7.42-13.53-.46-56.3,14.55-64.58,19.38-56.11,32.73-156.34,72.99-157.34,73.39l-1.6.64ZM663.02,252.96l-3.21,67.87c13.12-5.31,103.37-42.23,155.45-72.6,8.41-4.91,51.95-20.16,65.77-19.68,8,.26,12.81-2.82,14.05-6,.79-2.02.17-4.03-1.72-5.65-2.77-2.37-11.94-1.78-20.04-1.26-8.86.57-17.23,1.1-20.96-1.35-4.51-2.98-5.72-24.2-4.02-70.98.12-3.37.21-5.81.21-6.82,0-4.12-2-7.72-3.65-7.96-1.18-.17-3.08,1.61-4.7,7.13l-1.73,5.91-.43-6.15c-.74-10.54-2.74-11.02-2.96-11.04-1.88-.18-5.36,6.41-6.55,11.25l-.57,2.32-1.4-1.94c-.15-.2-3.64-4.92-7.34-2.33-1.94,1.47-9.75,21.48-16.63,39.13-11.33,29.05-19.01,48.24-22.33,50.29-5.94,3.66-106.35,27.29-117.21,29.84Z"/>
        </g>
        <g>
          <path class="cls-7" d="M142.82,330.6l126.47-33.43s14.09,2.02,21.18,24.32c7.09,22.3,1.55,40.79,1.55,40.79l-154.07,17.01,4.88-48.68h-.01Z"/>
          <path class="cls-3" d="M136.71,380.53l4.9-48.82h-7.3l134.92-35.67.22.03c.6.09,14.86,2.38,22.07,25.08,7.11,22.37,1.79,40.67,1.56,41.44l-.21.7-.73.08-155.43,17.16ZM143.86,331.47l-4.67,46.56,151.95-16.78c.89-3.55,4.4-20.14-1.73-39.43-3.54-11.15-8.88-16.97-12.73-19.88-3.57-2.7-6.56-3.48-7.35-3.64l-125.47,33.17Z"/>
        </g>
        <g>
          <path class="cls-5" d="M687.57,252.24s32.27,20.43,8.85,53.87c-15.5,22.14-50.92,37.64-101.1,41.33-50.18,3.69,1.1,70.94-63.71,83.91,40.96,97.4-78.13,110.2-140.32,74.86-50.19-28.53-105.89-68.73-129.51-39.21,0,0,12.86-18.12,62.73-33.21,95.44-28.87,43.54-56.83,43.54-56.83,0,0-47.15,27.28-81.85-14.04,0,0,14.08-33.28-16.92-65.76,0,0,11.01-45.27,76.18-23.86,48.35,15.88,124.07,35.01,187.33,3.29,63.26-31.74,108.28-57.56,154.77-24.35h0Z"/>
          <path class="cls-3" d="M463.28,525.25c-25.67,0-52.63-6.77-72.54-18.09-7.15-4.06-14.53-8.43-21.67-12.66-42.66-25.26-86.77-51.38-106.43-26.82l-1.77-1.33c.53-.75,13.65-18.61,63.31-33.63,45.34-13.72,55.9-26.9,56.78-35.55,1.01-10.02-10.36-17.41-12.93-18.94-5.53,2.92-49.86,24.49-82.68-14.59l-.44-.52.26-.62c.14-.33,13.4-33.02-16.7-64.56l-.42-.44.14-.59c.15-.63,3.95-15.59,19.74-24.37,14.47-8.05,33.94-8.14,57.86-.28,50.1,16.46,123.95,34.71,186.49,3.35,3.29-1.65,6.54-3.29,9.74-4.9,58.88-29.7,101.44-51.17,145.99-19.49l.13.08c.58.36,14.14,9.11,17.26,24.7,1.98,9.9-.74,20.24-8.1,30.74-16.09,22.98-53.24,38.22-101.93,41.8-22.6,1.66-23.74,16.64-25.07,33.99-1.52,19.83-3.24,42.28-37.18,49.62,16.45,40.16,4.35,62.45-8.78,74.12-14.91,13.23-37.45,18.98-61.08,18.98ZM284.54,455.61c23.2,0,54.8,18.71,85.66,36.99,7.13,4.22,14.5,8.59,21.63,12.64,46.83,26.62,106.66,21.04,131.05-.62,18.26-16.21,20.92-41.4,7.7-72.84l-.53-1.25,1.33-.27c33.58-6.71,35.18-27.65,36.73-47.9,1.35-17.6,2.62-34.23,27.12-36.03,48.02-3.53,84.57-18.42,100.27-40.86,6.99-9.98,9.6-19.74,7.75-29.01-2.29-11.47-10.89-19.19-14.58-22.05h0s-1.75-1.25-1.75-1.25c-43.53-31.09-85.62-9.86-143.89,19.53-3.2,1.61-6.45,3.25-9.74,4.9-63.27,31.73-137.69,13.35-188.17-3.23-23.29-7.65-42.15-7.62-56.06.09-13.27,7.36-17.69,19.64-18.54,22.41,15.88,16.88,19.62,33.94,19.95,45.33.31,10.67-2.18,18.31-3,20.52,33.64,39.38,79.56,13.56,80.02,13.29l.54-.31.54.29c.65.35,15.87,8.7,14.59,21.4-1.36,13.56-20.99,26.16-58.34,37.46-24.4,7.38-39.9,15.53-49.32,21.86,2.84-.75,5.86-1.1,9.03-1.1Z"/>
        </g>
        <g>
          <path class="cls-2" d="M523.22,191.78c-1.07-47.39-31.76-62.35-59.56-60.67-27.42,1.66-44.98,24.53-50.68,72.91-6.02,51.07,17.54,67.52,37.8,70.12l-6.9,40.04c-5.93,28.71,47.1,33.54,53.66,0l13.36-77.62c3.5,1.99,7.54,3.16,11.85,3.16,13.24,0,23.97-10.73,23.97-23.97s-10.49-23.71-23.52-23.96h.03Z"/>
          <path class="cls-3" d="M467.64,338.65c-7.33,0-14.39-2.25-19.13-6.44-5.17-4.57-7.2-11.05-5.72-18.25l6.7-38.88c-14.48-2.22-44.39-13.73-37.61-71.19,5.58-47.29,22.98-72.15,51.72-73.88,16.59-1,31.6,3.86,42.28,13.69,11.57,10.65,17.77,26.47,18.43,47.03,13.28.81,23.53,11.6,23.53,25.03s-11.25,25.08-25.08,25.08c-3.79,0-7.57-.89-11.02-2.57l-13.1,76.11c-2.13,10.89-9.13,18.86-19.73,22.45-3.64,1.23-7.48,1.83-11.26,1.83ZM467.83,132.09c-1.35,0-2.72.04-4.1.12-27.51,1.66-44.22,25.86-49.65,71.93-6.73,57.05,23.52,67.18,36.84,68.89l1.15.15-7.1,41.18c-1.34,6.52.39,12.1,5.01,16.18,6.62,5.85,18.22,7.56,28.21,4.17,5.68-1.93,15.61-7.19,18.26-20.75l13.62-79.15,1.37.78c3.47,1.97,7.38,3.01,11.3,3.01,12.61,0,22.87-10.26,22.87-22.87s-9.86-22.61-22.44-22.85v-1.11s-1.06.02-1.06.02c-.46-20.44-6.43-36.08-17.74-46.49-9.34-8.6-22.2-13.23-36.55-13.23Z"/>
        </g>
        <path class="cls-3" d="M450.78,273.09c11.97,1.51,28.03-5.82,38.53-16.66,0,0-10.43,33.75-41.48,33.75l2.95-17.09Z"/>
        <path class="cls-3" d="M521.48,193.61c-12.45,2.92-17.99,18.31-17.99,18.31,0,0-33.86-7.43-45.63-33.79-3.65-8.16-14.94-31.19-14.94-31.19,0,0-3.06,14.95-19.77,15.7,0,0,1.17-38.16,60.37-33.57,59.19,4.59,48.53,65.7,48.53,65.7,0,0-4.5-2.57-10.57-1.14h0Z"/>
        <path class="cls-3" d="M535.06,227.07c-.19,0-.39-.06-.56-.17-.45-.31-.56-.92-.25-1.37,2.65-3.83,3.3-9.3,1.61-13.62-1.23-3.15-3.54-5.26-6.5-5.92-9.78-2.2-13.5,8.32-13.65,8.76-.18.51-.73.79-1.25.61-.51-.17-.79-.73-.61-1.24.04-.13,4.42-12.63,15.94-10.05,3.61.81,6.42,3.34,7.9,7.12,1.94,4.97,1.23,11.04-1.83,15.45-.19.28-.5.42-.81.42Z"/>
        <g>
          <path class="cls-3" d="M425.03,196.17c2.35,0,4.26,4.78,4.26,10.68s-1.91,10.68-4.26,10.68-4.26-4.78-4.26-10.68,1.91-10.68,4.26-10.68Z"/>
          <path class="cls-3" d="M427.11,197.55c-2.44-6-9.1-4.22-10.1,1.91l10.1-1.91Z"/>
        </g>
        <g>
          <path class="cls-3" d="M460.82,202.4c2.35,0,4.26,4.78,4.26,10.68s-1.91,10.68-4.26,10.68-4.26-4.78-4.26-10.68,1.91-10.68,4.26-10.68Z"/>
          <path class="cls-3" d="M462.92,203.78c-2.44-6-9.1-4.22-10.1,1.91l10.1-1.91Z"/>
        </g>
        <path class="cls-3" d="M477.25,196.24c-.49,0-.92-.37-.97-.87-1.61-14.43-9.44-16.2-11.8-16.4-4.16-.34-7.96,2.09-9.02,5.81-.15.52-.7.82-1.21.67-.52-.15-.82-.69-.67-1.21,1.32-4.62,5.98-7.66,11.08-7.23,5.64.47,12.18,5.49,13.58,18.14.06.54-.33,1.02-.87,1.08-.04,0-.07,0-.11,0Z"/>
        <path class="cls-3" d="M437.92,183.37s-.06,0-.08,0c-.54-.05-.94-.52-.89-1.06.37-4.34-2.89-8.94-6.84-9.65-3.74-.67-6.86,2.37-8.53,8.36-.15.52-.69.83-1.21.68-.52-.15-.83-.69-.68-1.21,1.95-6.98,5.98-10.63,10.77-9.76,4.96.9,8.91,6.39,8.45,11.75-.04.51-.47.9-.98.9Z"/>
        <path class="cls-3" d="M445.67,235.25c-.05,0-.1,0-.15-.01-.46-.07-11.29-1.84-12.78-7.97-1.49-6.13,8.18-13.15,8.59-13.45.44-.31,1.05-.22,1.37.23.32.44.21,1.05-.22,1.37-2.51,1.8-8.81,7.36-7.83,11.39.98,4.03,8.4,6.05,11.18,6.49.54.08.9.59.82,1.12-.08.48-.49.83-.97.83Z"/>
        <path class="cls-20" d="M437.67,227.71s9.26,4.23,10.06,1.86c.8-2.37-2.64-10.4-5.03-10.93-2.39-.53-7.59,6.7-5.03,9.09h0Z"/>
        <g>
          <g>
            <path class="cls-6" d="M270.74,892.45s-25.46,23.36-26.52,68.42c-.38,16.4,35.7,9.57,51.74,28.65,16.04,19.08,70.25,44.25,110.8,38.11,24.04-3.65,30-27.65,19.56-47.27-10.44-19.64-50.09-35.23-73.44-65.99-10.97-14.45-30.41,3.46-46.73.23-25.7-5.08-27.53-28.18-35.41-22.13h0Z"/>
            <g class="cls-25">
              <g>
                <path class="cls-8" d="M240.27,925.49s8,17.22,31.46,21.53c53.1,9.78,39.98,60.62,113.93,70.16,44.16,5.69,52.93-10.46,52.93-10.46l-8.88,33.5-209.55-29.12,20.11-85.6h0Z"/>
                <path class="cls-3" d="M430.53,1041.46l-211.73-29.43,20.36-86.66v-4.86l2.11,4.5c.08.17,8.08,16.76,30.65,20.91,24.42,4.5,35.02,17.48,46.25,31.24,13.55,16.59,27.55,33.75,67.62,38.92,42.9,5.53,51.73-9.73,51.81-9.88l4.41-8.12-11.49,43.38ZM221.52,1010.18l207.38,28.82,7.46-28.17c-5.49,4.6-19.3,11.53-50.84,7.46-40.94-5.28-55.88-23.57-69.06-39.71-10.96-13.43-21.32-26.11-44.93-30.46-18.53-3.41-27.58-14.54-30.82-19.62l-19.19,81.68Z"/>
              </g>
            </g>
            <path class="cls-3" d="M393.5,1029.69c-38.57,0-83.52-21.76-98.39-39.45-7.61-9.05-19.89-12.1-30.72-14.78-11.54-2.86-21.5-5.33-21.28-14.6.55-23.51,7.81-41.05,13.8-51.63,6.51-11.49,12.81-17.34,13.08-17.59l.07-.06c4.28-3.28,7.17.33,10.82,4.92,4.51,5.66,11.32,14.2,25.48,17,6.32,1.26,13.28-.85,20.01-2.88,10.02-3.03,20.38-6.16,27.39,3.07,11.99,15.79,28.36,27.6,42.81,38.01,13.72,9.89,25.57,18.43,30.73,28.13,6.05,11.37,6.74,23.98,1.85,33.73-4.13,8.23-12.02,13.61-22.21,15.16-4.34.66-8.84.97-13.42.97ZM271.45,893.3c-1.05.99-25.11,24.32-26.13,67.6-.18,7.49,8.55,9.66,19.6,12.4,11.16,2.77,23.81,5.9,31.88,15.51,15.95,18.97,70.27,43.7,109.79,37.72,9.6-1.46,16.71-6.29,20.57-13.96,4.57-9.11,3.89-20.95-1.82-31.69-4.92-9.25-16.57-17.65-30.07-27.38-14.57-10.51-31.09-22.41-43.28-38.47-6.07-8-14.84-5.35-24.98-2.29-6.99,2.11-14.22,4.29-21.08,2.93-14.95-2.96-22.07-11.89-26.78-17.8-4.11-5.16-5.42-6.3-7.7-4.57Z"/>
          </g>
          <path class="cls-16" d="M318.06,935.38l-1.68-1.45c18.19-21.04,43.67-5.31,43.93-5.15l-1.18,1.87c-.06-.04-6.14-3.83-14.24-5.1-10.71-1.68-19.74,1.62-26.83,9.82Z"/>
          <path class="cls-16" d="M327.83,947.98l-1.68-1.45c18.19-21.04,43.67-5.31,43.93-5.15l-1.18,1.87c-.06-.04-6.14-3.83-14.24-5.1-10.71-1.69-19.74,1.62-26.83,9.82Z"/>
          <path class="cls-16" d="M336.28,959.93l-1.68-1.45c18.19-21.04,43.67-5.31,43.93-5.15l-1.18,1.87c-.06-.04-6.14-3.83-14.24-5.1-10.71-1.68-19.74,1.62-26.83,9.82Z"/>
        </g>
        <g>
          <g>
            <path class="cls-14" d="M742.95,870.91s-19.4,28.61-10.06,72.69c3.4,16.05,36.95,1.09,56.95,15.97,19.99,14.87,78.56,26.89,116.6,11.57,22.56-9.08,22.83-33.81,8.15-50.51-14.69-16.7-56.85-22.75-86.65-47.31-14-11.54-28.79,10.36-45.42,10.97-26.19.97-33.28-21.08-39.55-13.39h-.01Z"/>
            <g class="cls-24">
              <g>
                <path class="cls-17" d="M720.91,910.06s11.74,14.91,35.57,13.72c53.92-2.71,52.86,49.79,127.03,42.06,44.27-4.62,49.1-22.36,49.1-22.36l-.93,34.64-210.63,19.89-.13-87.94h-.01Z"/>
                <path class="cls-3" d="M719.95,999.23l-.13-89.15h.98s.9-.8.9-.8l.34.39c1.8,2.05,13.31,14.05,34.39,13,24.8-1.26,38.1,8.96,52.2,19.75,17,13.03,34.6,26.5,74.77,22.31,22.41-2.34,34.33-8.1,40.38-12.53,6.49-4.74,7.76-8.98,7.77-9.02l2.41-8.4-1.19,44.35-212.81,20.09ZM722.04,912.89l.13,83.9,208.44-19.68.78-29.13c-4.29,5.74-16.14,15.66-47.76,18.96-41.08,4.28-59.81-10.08-76.35-22.75-13.76-10.54-26.74-20.5-50.74-19.3-18.8.95-30.17-7.79-34.5-11.99Z"/>
              </g>
            </g>
            <path class="cls-3" d="M864.11,979.44c-30.32,0-61.06-8.66-74.93-18.97-9.49-7.06-22.14-7.2-33.3-7.32-11.89-.13-22.15-.24-24.07-9.31-4.87-23-1.85-41.74,1.55-53.42,3.69-12.68,8.48-19.83,8.68-20.13l.33-.49h.1c3.31-3.57,6.85-.79,11.3,2.7,5.69,4.47,14.26,11.2,28.71,10.69,6.44-.24,12.73-3.88,18.81-7.41,9.05-5.25,18.42-10.68,27.36-3.31,15.29,12.6,33.94,20.32,50.4,27.13,15.63,6.47,29.12,12.05,36.38,20.3,8.51,9.68,12.09,21.8,9.56,32.41-2.13,8.96-8.57,16.01-18.13,19.86-12.73,5.13-27.68,7.26-42.74,7.26ZM743.79,871.65c-1.34,2.08-18.63,30.09-9.81,71.72,1.55,7.33,10.54,7.43,21.93,7.55,11.5.12,24.53.27,34.6,7.76,19.88,14.79,78.45,26.37,115.52,11.43,9-3.62,14.81-9.96,16.8-18.31,2.36-9.92-1.03-21.29-9.07-30.44-6.92-7.87-20.19-13.36-35.56-19.72-16.6-6.87-35.41-14.65-50.96-27.47-7.75-6.39-15.67-1.8-24.83,3.52-6.31,3.66-12.84,7.45-19.84,7.7-15.21.58-24.22-6.49-30.16-11.16-5.21-4.09-6.74-4.88-8.57-2.64l-.04.04Z"/>
          </g>
          <path class="cls-16" d="M798.9,901.78l-1.96-1.02c12.86-24.67,41.27-15.22,41.56-15.12l-.72,2.1c-.07-.02-6.85-2.32-15.02-1.69-10.81.83-18.84,6.12-23.85,15.73Z"/>
          <path class="cls-16" d="M811.31,911.79l-1.96-1.02c12.86-24.67,41.27-15.22,41.56-15.12l-.72,2.1c-.07-.02-6.86-2.32-15.02-1.69-10.81.83-18.84,6.12-23.85,15.73Z"/>
          <path class="cls-16" d="M822.28,921.48l-1.96-1.02c12.86-24.67,41.27-15.22,41.56-15.12l-.72,2.1c-.07-.02-6.85-2.31-15.03-1.69-10.81.83-18.84,6.12-23.85,15.73Z"/>
        </g>
        <g>
          <path class="cls-16" d="M432.06,240.61c-.09-1.82,1.75-3.1,3.46-2.48,6.25,2.27,21.04,5.81,36.34-3.85,6.89-4.35,1.99,17.59-14.62,23.78-14.59,5.43-24.69-7.68-25.18-17.45h0Z"/>
          <g class="cls-28">
            <path class="cls-3" d="M429.1,236.97s10.87,10.69,11.41,12.06-2.56,10.84-2.56,10.84c0,0-10.73-8.94-8.85-22.9Z"/>
          </g>
          <path class="cls-3" d="M450.53,260.31c-4.14,0-7.42-1.45-9.72-2.96-5.5-3.62-9.41-10.33-9.73-16.7h0c-.06-1.16.47-2.27,1.41-2.97.97-.72,2.23-.9,3.37-.49,5.64,2.05,20.38,5.78,35.48-3.75,1.59-1.01,2.64-.77,3.24-.4.7.43,1.48,1.48,1.23,4.03-.62,6.32-6.85,17.65-18.23,21.89-2.57.96-4.93,1.34-7.06,1.34ZM434.63,238.95c-.34,0-.68.11-.97.32-.42.31-.64.78-.62,1.29h0c.29,5.68,3.92,11.91,8.85,15.16,3.1,2.04,8.22,3.95,15.01,1.42,10.98-4.09,16.47-15.2,16.96-20.24.15-1.53-.17-2.08-.31-2.17-.1-.06-.46-.06-1.16.39-15.84,10-31.29,6.09-37.2,3.94-.18-.07-.37-.1-.56-.1Z"/>
        </g>
        <path class="cls-3" d="M367.88,375.93c25.47-6.93,29.76-12.11,32.65-9.63,2.89,2.48,1.5,38.7-33.86,49.85,6.25-9.8,17.42-27.97,1.21-40.21h0Z"/>
        <g>
          <g>
            <path class="cls-19" d="M105.33,373.56s17.55,28.01,38.73,16.68c21.18-11.33,35.35-15.76,50.51-13.84,15.17,1.92,18.67-8.84,10.39-18.42-8.28-9.57-37.39-2.92-37.39-2.92,0,0-16.98-14.04-20.13-39.98-3.14-25.94,3.48-28.66-7.92-31.27-11.38-2.61-31.59,11.12-31.59,11.12,0,0-32.63,1.58-46.4-3.87-13.77-5.45-12.6,19.9,10.08,22.97,0,0-13.03,2.99-22.45,3.45-9.42.46-4.62,15.8,17.58,14.44,0,0-25.01,4.84-21.8,12.22,3.21,7.38,29.91,4.09,29.91,4.09,0,0-6.21,28.57,30.48,25.35h0Z"/>
            <path class="cls-3" d="M133.82,394.03c-15.12,0-26.81-16.01-29.05-19.3-12.33.97-21.22-1.54-26.43-7.46-5.52-6.27-5.23-14.45-4.82-17.79-6.1.64-26.5,2.21-29.6-4.91-.55-1.26-.49-2.58.16-3.83,1.91-3.62,8.9-6.33,14.61-8-7.27-1.04-11.84-4.15-13.88-7.24-1.44-2.19-1.74-4.49-.82-6.3.87-1.71,2.68-2.71,5.1-2.83,5.62-.28,12.62-1.48,17.26-2.38-8.12-2.6-12.64-8.23-14.22-13.2-1.3-4.08-.72-7.91,1.52-10,1.13-1.06,3.71-2.56,8.28-.76,12.69,5.03,42.29,3.95,45.63,3.81,2.54-1.69,21.05-13.65,32.2-11.11,8.13,1.86,8.07,4.46,7.89,12.17-.11,4.51-.25,10.69.88,20.05,2.79,23.01,16.79,36.61,19.34,38.91,4.24-.91,29.85-5.92,37.92,3.4,4.44,5.14,5.81,10.92,3.57,15.09-2.25,4.19-7.69,6.07-14.94,5.15-14.27-1.81-27.78,1.91-49.85,13.72-3.71,1.99-7.33,2.81-10.76,2.81ZM104.22,369.73l2.05,3.25c.17.27,17.26,27,37.27,16.29,22.52-12.05,36.4-15.84,51.17-13.96,6.28.79,10.92-.66,12.71-4,1.79-3.34.53-8.17-3.3-12.59-7.75-8.96-36.02-2.63-36.3-2.56l-.53.12-.42-.35c-.71-.58-17.36-14.62-20.52-40.7-1.15-9.52-1-16.05-.9-20.37.18-7.69.2-8.5-6.17-9.96-10.79-2.48-30.52,10.82-30.72,10.95l-.26.17h-.31c-1.34.08-33.02,1.54-46.86-3.94-2.58-1.02-4.63-.91-5.95.31-1.58,1.47-1.94,4.5-.92,7.71,1.68,5.28,7.16,11.42,17.5,12.82l6.04.82-5.94,1.36c-.54.12-13.23,3.01-22.64,3.48-1.59.08-2.74.65-3.24,1.62-.54,1.06-.28,2.59.7,4.08,2.37,3.6,8.87,7.21,20,6.52l.28,2.19c-5.04.98-18.63,4.46-20.9,8.78-.34.65-.37,1.26-.09,1.91,2.1,4.82,18.75,4.66,28.75,3.43l1.55-.19-.33,1.52c-.02.1-2.13,10.32,4.09,17.37,4.68,5.3,12.81,7.56,24.2,6.73v-2.83Z"/>
          </g>
          <path class="cls-3" d="M109.96,322.15c-4.33,0-8.67-1.16-12.99-3.5-4.22-2.28-6.41-4.93-6.51-7.88-.2-6.05,8.33-11.39,14.55-15.29.84-.52,1.62-1.01,2.31-1.46l1.21,1.86c-.7.46-1.49.95-2.34,1.48-5.44,3.41-13.67,8.56-13.51,13.34.07,2.11,1.87,4.13,5.35,6,11.45,6.19,22.63,3.6,34.16-7.89l1.56,1.57c-7.86,7.84-15.82,11.77-23.79,11.77Z"/>
          <path class="cls-3" d="M77.39,341.86l-2.18-.38c.04-.21,3.94-21.27,22.97-24.45l.37,2.19c-17.47,2.92-21.12,22.45-21.16,22.65Z"/>
          <path class="cls-3" d="M108.69,379.83c-10.17-9.29-7.91-24.92-7.8-25.58l2.19.33c-.02.15-2.17,15.13,7.11,23.61l-1.5,1.64Z"/>
          <rect class="cls-3" x="121.7" y="318.16" width="2.22" height="18.98" transform="translate(-49.57 23.15) rotate(-8.97)"/>
          <path class="cls-3" d="M155.12,362.09l-1.43-1.7c.36-.3,8.89-7.35,23.04-7.95l.09,2.21c-13.36.57-21.62,7.37-21.71,7.44Z"/>
          <rect class="cls-3" x="66.68" y="329.87" width="14.4" height="2.22" transform="translate(-42.72 12.53) rotate(-7.53)"/>
          <rect class="cls-3" x="81.33" y="303.46" width="2.22" height="21.66" transform="translate(-233.73 389.2) rotate(-88.63)"/>
        </g>
        <rect class="cls-3" x="817.47" y="153.44" width="38.98" height="2.21" transform="translate(586.96 968.12) rotate(-83.38)"/>
        <rect class="cls-3" x="805.66" y="151.69" width="37.36" height="2.22" transform="translate(527.99 937.05) rotate(-79.8)"/>
        <rect class="cls-3" x="797.92" y="148.89" width="36.67" height="2.22" transform="translate(459.12 899.15) rotate(-74.92)"/>
        <path class="cls-3" d="M541.81,607.13c-.21,0-.42-.07-.59-.2l-49.87-38.01.88-.79c10.24-9.23,11.6-21.27,10.48-36.49-.04-.54.37-1.01.91-1.05.54-.04,1.01.37,1.05.91,1.13,15.37-.21,27.65-10.26,37.29l48,36.59c.43.33.51.95.19,1.38-.19.25-.49.39-.78.39Z"/>
        <path class="cls-3" d="M405.13,681.84c-.38,0-.74-.22-.9-.59-.17-.38-16.32-38.33,18.2-71.57,11.5-11.08,25.96-18.32,42.98-21.53.53-.1,1.05.25,1.15.78.1.53-.25,1.05-.78,1.15-16.64,3.13-30.76,10.2-41.98,21.01-17.5,16.86-21.4,34.8-21.59,46.88-.21,13.13,3.79,22.39,3.83,22.48.22.5,0,1.08-.5,1.29-.13.06-.26.08-.4.08Z"/>
        <path class="cls-3" d="M590.74,627.48c-.33,0-.66-.17-.84-.48-.17-.29-17.14-29.12-11.07-68.07,6.1-39.2,48.41-52.56,48.83-52.69.51-.16,1.07.13,1.23.65.16.52-.13,1.07-.65,1.23-.42.13-41.56,13.15-47.47,51.12-5.95,38.25,10.65,66.48,10.82,66.76.28.47.13,1.07-.34,1.35-.16.09-.33.14-.5.14Z"/>
        <path class="cls-3" d="M568.32,394.49s-.09,0-.14-.01c-.54-.08-.91-.58-.83-1.11,6.94-47.78-27.21-75.41-27.55-75.68-.42-.34-.5-.95-.16-1.38.33-.42.95-.5,1.38-.16.35.28,35.38,28.62,28.28,77.51-.07.49-.49.84-.97.84Z"/>
        <path class="cls-3" d="M465.59,709.07c-.38,0-.74-.22-.9-.58-.22-.49,0-1.08.5-1.3,12.52-5.55,26.83-9.8,42.53-12.63.53-.1,1.04.26,1.14.79.1.53-.26,1.04-.79,1.14-15.55,2.8-29.71,7-42.09,12.5-.13.06-.26.08-.4.08Z"/>
        <ellipse class="cls-23" cx="564.84" cy="676" rx="15.47" ry="32.08"/>
        <ellipse class="cls-13" cx="770.89" cy="607.06" rx="21.52" ry="32.08" transform="translate(-204.94 504.33) rotate(-32.21)"/>
      </g>
      <g>
        <path class="cls-22" d="M1.88,755.94l475.24,79.98s10.11,249.75,309.23,236.31C366.73,1131.08,111.95,996.46,1.88,755.94Z"/>
        <g class="cls-26">
          <g>
            <path class="cls-3" d="M789.74,1104.53c-72.91-2.76-136.29-17.59-188.39-44.06-41.72-21.2-76.33-49.87-102.88-85.22-42.28-56.29-50.42-112-51.35-119.49l-406.02-69.48c3.47,16.24,18.59,56.4,53.94,103.08,26.83,35.43,61.06,69.51,101.72,101.29,50.84,39.74,111.95,75.97,181.63,107.69l-.92,2.02c-69.89-31.82-131.18-68.17-182.19-108.05-40.82-31.92-75.18-66.16-102.12-101.76-36.75-48.57-51.76-90.2-54.56-105.43l-.29-1.56,1.56.27,409.26,70.04.08.84c.06.59,6.2,59.6,51.08,119.31,26.35,35.05,60.71,63.48,102.11,84.51,51.8,26.31,114.85,41.04,187.4,43.79l-.08,2.21Z"/>
            <g>
              <ellipse class="cls-21" cx="337.73" cy="1036.5" rx="82.03" ry="143.35" transform="translate(-745.69 915.69) rotate(-65.59)"/>
              <path class="cls-3" d="M392.04,1132.96c-27.84,0-58.79-7.19-88.67-20.75-35.04-15.9-64.45-38.68-82.81-64.13-18.49-25.64-23.6-50.95-14.37-71.28h0c18.95-41.75,93.37-48.93,165.9-16.01,35.04,15.9,64.45,38.68,82.81,64.13,18.49,25.63,23.6,50.95,14.37,71.28-9.23,20.33-31.64,33.16-63.11,36.12-4.6.43-9.31.65-14.12.65ZM208.2,977.72h0c-8.88,19.58-3.86,44.11,14.15,69.07,18.14,25.14,47.24,47.66,81.93,63.41,34.69,15.75,70.8,22.82,101.67,19.92,30.64-2.88,52.41-15.25,61.3-34.83,8.88-19.58,3.86-44.11-14.15-69.07-18.14-25.14-47.24-47.66-81.93-63.41-71.41-32.41-144.52-25.72-162.97,14.91Z"/>
            </g>
          </g>
        </g>
        <path class="cls-3" d="M599.97,1087.09c-122.76,0-230.7-19.95-322.38-59.73C151.15,972.5,58.04,881.34.87,756.4l-.87-1.9,2.06.35,476.13,80.13.04.9c.04.97,4.83,98.07,79.75,166.84,54.22,49.77,131.04,72.77,228.32,68.41l.2,2.2c-65.47,9.18-127.7,13.76-186.53,13.76ZM3.76,757.38c57.01,123.44,149.43,213.59,274.71,267.95,130.65,56.69,294.52,72.99,487.33,48.53-.81,0-1.62,0-2.43,0-87.07,0-156.61-23.35-206.92-69.54-71.72-65.84-79.73-157.39-80.39-167.46L3.76,757.38Z"/>
      </g>
    </g>
  </g>
</svg>