<?xml version="1.0" encoding="UTF-8"?>
<svg id="Camada_2" data-name="Camada 2" xmlns="http://www.w3.org/2000/svg" xmlns:xlink="http://www.w3.org/1999/xlink" viewBox="0 0 972.33 1137.31">
  <defs>
    <style>
      .cls-1 {
        fill: url(#Gradiente_sem_nome_18);
      }

      .cls-1, .cls-2, .cls-3, .cls-4, .cls-5, .cls-6, .cls-7, .cls-8, .cls-9, .cls-10, .cls-11, .cls-12, .cls-13, .cls-14, .cls-15, .cls-16, .cls-17, .cls-18, .cls-19, .cls-20, .cls-21 {
        stroke-width: 0px;
      }

      .cls-2 {
        fill: url(#Gradiente_sem_nome_19-4);
      }

      .cls-3 {
        fill: url(#Gradiente_sem_nome_20-4);
      }

      .cls-4 {
        fill: url(#Gradiente_sem_nome_20-2);
      }

      .cls-5 {
        fill: #000;
      }

      .cls-6 {
        fill: url(#Gradiente_sem_nome_20);
      }

      .cls-7 {
        fill: url(#Gradiente_sem_nome_19-8);
      }

      .cls-8 {
        fill: url(#Gradiente_sem_nome_19-5);
      }

      .cls-22 {
        clip-path: url(#clippath-2);
      }

      .cls-9 {
        fill: url(#Gradiente_sem_nome_19-3);
      }

      .cls-10 {
        fill: url(#Gradiente_sem_nome_1078);
      }

      .cls-23 {
        clip-path: url(#clippath-6);
      }

      .cls-11 {
        fill: url(#Gradiente_sem_nome_1224);
      }

      .cls-12 {
        fill: none;
      }

      .cls-24 {
        clip-path: url(#clippath-7);
      }

      .cls-25 {
        clip-path: url(#clippath-1);
      }

      .cls-26 {
        clip-path: url(#clippath-4);
      }

      .cls-13 {
        fill: url(#Gradiente_sem_nome_19);
      }

      .cls-14 {
        fill: url(#Gradiente_sem_nome_19-2);
      }

      .cls-27 {
        clip-path: url(#clippath);
      }

      .cls-15 {
        fill: url(#Gradiente_sem_nome_20-3);
      }

      .cls-16 {
        fill: url(#Gradiente_sem_nome_19-7);
      }

      .cls-28 {
        clip-path: url(#clippath-3);
      }

      .cls-17, .cls-19 {
        fill: #fff;
      }

      .cls-29 {
        clip-path: url(#clippath-5);
      }

      .cls-18 {
        fill: url(#Gradiente_sem_nome_1063);
      }

      .cls-19 {
        isolation: isolate;
        opacity: .54;
      }

      .cls-20 {
        fill: url(#Gradiente_sem_nome_19-6);
      }

      .cls-21 {
        fill: url(#Gradiente_sem_nome_19-9);
      }
    </style>
    <linearGradient id="Gradiente_sem_nome_19" data-name="Gradiente sem nome 19" x1="-3308.23" y1="1976.91" x2="-3702.93" y2="2225.1" gradientTransform="translate(-1823.86 4431.16) rotate(90) scale(1 -1)" gradientUnits="userSpaceOnUse">
      <stop offset=".1" stop-color="#ffe26c"/>
      <stop offset=".14" stop-color="#ffe371"/>
      <stop offset=".52" stop-color="#fff1b8"/>
      <stop offset=".78" stop-color="#fffbeb"/>
      <stop offset=".92" stop-color="#fff"/>
    </linearGradient>
    <clipPath id="clippath">
      <ellipse class="cls-12" cx="226.94" cy="1005.61" rx="151.77" ry="54.38" transform="translate(-71.15 18.75) rotate(-4.09)"/>
    </clipPath>
    <linearGradient id="Gradiente_sem_nome_20" data-name="Gradiente sem nome 20" x1="-3381.9" y1="1922.94" x2="-3377.37" y2="2245.85" gradientTransform="translate(-1573.85 4568.84) rotate(85.91) scale(1 -1)" gradientUnits="userSpaceOnUse">
      <stop offset=".22" stop-color="#ffe26c"/>
      <stop offset=".25" stop-color="#ffe371"/>
      <stop offset=".57" stop-color="#fff1b8"/>
      <stop offset=".8" stop-color="#fffbeb"/>
      <stop offset=".92" stop-color="#fff"/>
    </linearGradient>
    <clipPath id="clippath-1">
      <path class="cls-12" d="M235.53,1098.34c36.19-2.96,72.68-9.5,106.01-24.29,14.7-6.97,33.89-17.3,38.94-33.77.6-2.24.85-4.58.69-6.89l-2.76-38.64c.85,30.79-58.25,49.2-82.74,55.15-55.86,13.89-150.52,18.68-201.66-9.94,0,0-.03-.01-.04-.03-8.61-5.19-17.5-12.84-18.34-23.51.29,2.2,2.59,41.58,3.45,42.55,2.52,8.82,10.08,15.01,17.65,19.61,17.65,10.19,37.95,14.63,57.95,17.67,26.73,3.78,53.92,4.1,80.83,2.08h.01Z"/>
    </clipPath>
    <linearGradient id="Gradiente_sem_nome_19-2" data-name="Gradiente sem nome 19" x1="-3444.04" y1="2488.15" x2="-3735.1" y2="2671.16" gradientTransform="translate(-1832.6 4396.34) rotate(90) scale(1 -1)" xlink:href="#Gradiente_sem_nome_19"/>
    <linearGradient id="Gradiente_sem_nome_20-2" data-name="Gradiente sem nome 20" x1="-3498.46" y1="2448.38" x2="-3495.13" y2="2686.51" xlink:href="#Gradiente_sem_nome_20"/>
    <clipPath id="clippath-2">
      <path class="cls-12" d="M716.45,934.1c26.68-2.18,53.59-7.01,78.17-17.91,10.84-5.13,24.98-12.75,28.72-24.9.44-1.65.62-3.37.52-5.08l-2.04-28.5c.62,22.71-42.95,36.27-61.01,40.68-41.18,10.24-111,13.77-148.71-7.34,0,0-.03,0-.03-.01-6.36-3.82-12.9-9.47-13.52-17.34.21,1.62,1.91,30.66,2.55,31.38,1.86,6.5,7.43,11.07,13.02,14.46,13.02,7.51,27.98,10.79,42.74,13.03,19.72,2.79,39.76,3.03,59.61,1.54h-.03Z"/>
    </clipPath>
    <linearGradient id="Gradiente_sem_nome_19-3" data-name="Gradiente sem nome 19" x1="-3093.38" y1="1787.05" x2="-3323.38" y2="1931.66" gradientTransform="translate(-976.29 3778.25) rotate(90) scale(1 -1)" xlink:href="#Gradiente_sem_nome_19"/>
    <linearGradient id="Gradiente_sem_nome_20-3" data-name="Gradiente sem nome 20" x1="-3136.15" y1="1755.47" x2="-3133.53" y2="1943.67" gradientTransform="translate(691.58 4265.97) rotate(62.48) scale(1 -1)" xlink:href="#Gradiente_sem_nome_20"/>
    <clipPath id="clippath-3">
      <path class="cls-12" d="M879.5,664.18c18.67-9.96,36.66-21.92,51.05-37.55,6.25-7.12,14.1-17.1,13-27.08-.2-1.34-.61-2.64-1.22-3.85l-10.43-20.02c7.59,16.28-19.74,39.8-31.46,48.67-26.66,20.37-76.16,44.86-110.14,41.4h-.03c-5.81-.78-12.33-2.81-15.24-8.33.66,1.11,11.03,21.64,11.7,21.96,3.38,4.14,8.86,5.69,13.98,6.4,11.8,1.37,23.68-.97,35.08-3.98,15.17-4.17,29.79-10.31,43.7-17.61h-.01Z"/>
    </clipPath>
    <linearGradient id="Gradiente_sem_nome_19-4" data-name="Gradiente sem nome 19" x1="-3106.59" y1="1356.32" x2="-3283.19" y2="1467.36" gradientTransform="translate(-549.04 3616.64) rotate(90) scale(1 -1)" xlink:href="#Gradiente_sem_nome_19"/>
    <linearGradient id="Gradiente_sem_nome_20-4" data-name="Gradiente sem nome 20" x1="-3139.7" y1="1332.24" x2="-3137.68" y2="1476.71" gradientTransform="translate(1758.89 3784.18) rotate(50.83) scale(1 -1)" xlink:href="#Gradiente_sem_nome_20"/>
    <clipPath id="clippath-4">
      <path class="cls-12" d="M867.32,489.34c12.48-10.39,24.16-22.16,32.56-36.15,3.6-6.33,7.96-15.05,5.57-22.38-.36-.97-.86-1.9-1.51-2.71l-10.95-13.44c8.23,11.05-8.68,32.98-16.11,41.46-16.88,19.45-50.3,45.54-76.38,48.22h-.03c-4.48.32-9.71-.2-12.76-3.9.68.73,11.64,14.55,12.21,14.69,3.18,2.59,7.55,2.91,11.5,2.64,9.09-.81,17.66-4.4,25.77-8.43,10.76-5.49,20.79-12.37,30.13-20.02v.03Z"/>
    </clipPath>
    <linearGradient id="Gradiente_sem_nome_19-5" data-name="Gradiente sem nome 19" x1="97.4" y1="-2888.99" x2="245.53" y2="-2888.99" gradientTransform="translate(0 -2106.57) scale(1 -1)" xlink:href="#Gradiente_sem_nome_19"/>
    <linearGradient id="Gradiente_sem_nome_19-6" data-name="Gradiente sem nome 19" x1="553.36" y1="-2732.11" x2="701.5" y2="-2732.11" gradientTransform="translate(0 -2106.57) scale(1 -1)" xlink:href="#Gradiente_sem_nome_19"/>
    <linearGradient id="Gradiente_sem_nome_1224" data-name="Gradiente sem nome 1224" x1="98.53" y1="-2689.92" x2="748.01" y2="-2689.92" gradientTransform="translate(0 -2106.57) scale(1 -1)" gradientUnits="userSpaceOnUse">
      <stop offset=".1" stop-color="#6494ff"/>
      <stop offset=".25" stop-color="#78a1ff"/>
      <stop offset=".29" stop-color="#82a9ff"/>
      <stop offset=".39" stop-color="#a5c0ff"/>
      <stop offset=".54" stop-color="#96b5ff"/>
      <stop offset=".66" stop-color="#88adff"/>
      <stop offset=".76" stop-color="#a4bfff"/>
      <stop offset=".79" stop-color="#aec6ff"/>
      <stop offset=".87" stop-color="#e6edfe"/>
      <stop offset=".91" stop-color="#fefefe"/>
      <stop offset=".94" stop-color="#fff"/>
    </linearGradient>
    <clipPath id="clippath-5">
      <path class="cls-12" d="M249.5,853.71c48.47-154.66,99.36-256.92,185.48-316.7,59.56,5.9,163.53-73.7,163.53-73.7-51.25,58.59-92.38,192.28-92.38,192.28,49.79-85.82,185.31-55.41,180.75,4.99,0,0,114.67-304.15,29.92-339.4-84.77-35.25-206.04,54.77-206.04,54.77,0,0-24.57-51.93-146.37,37.83-121.8,89.74-265.86,299.16-265.86,299.16,64.67-56.47,166.99,36.63,150.99,140.78h-.01Z"/>
    </clipPath>
    <linearGradient id="Gradiente_sem_nome_19-7" data-name="Gradiente sem nome 19" x1="568.3" y1="-2217.44" x2="658.71" y2="-2217.44" gradientTransform="translate(0 -2106.57) scale(1 -1)" xlink:href="#Gradiente_sem_nome_19"/>
    <linearGradient id="Gradiente_sem_nome_19-8" data-name="Gradiente sem nome 19" x1="-3309.27" y1="-1429.18" x2="-3218.87" y2="-1429.18" gradientTransform="translate(-1805.99 3256.05) rotate(147.41) scale(1 -1)" xlink:href="#Gradiente_sem_nome_19"/>
    <linearGradient id="Gradiente_sem_nome_19-9" data-name="Gradiente sem nome 19" x1="335.57" y1="-2213.33" x2="451.44" y2="-2213.33" gradientTransform="translate(0 -2106.57) scale(1 -1)" xlink:href="#Gradiente_sem_nome_19"/>
    <linearGradient id="Gradiente_sem_nome_18" data-name="Gradiente sem nome 18" x1="806.21" y1="-2003.23" x2="100.73" y2="-2530.55" gradientTransform="translate(0 -2106.57) scale(1 -1)" gradientUnits="userSpaceOnUse">
      <stop offset=".1" stop-color="#fff"/>
      <stop offset=".18" stop-color="#6f7eb2"/>
      <stop offset=".54" stop-color="#6c8dff"/>
      <stop offset=".79" stop-color="#b4c5ff"/>
      <stop offset=".92" stop-color="#abbeff"/>
    </linearGradient>
    <linearGradient id="Gradiente_sem_nome_1078" data-name="Gradiente sem nome 1078" x1="52.36" y1="-3010.97" x2="285.51" y2="-3010.97" gradientTransform="translate(0 -2106.57) scale(1 -1)" gradientUnits="userSpaceOnUse">
      <stop offset=".1" stop-color="#7aa3ff"/>
      <stop offset=".25" stop-color="#6b99ff"/>
      <stop offset=".39" stop-color="#5e91ff"/>
      <stop offset=".53" stop-color="#5b8dfc"/>
      <stop offset=".66" stop-color="#5e8bf2"/>
      <stop offset=".79" stop-color="#abc4ff"/>
      <stop offset=".91" stop-color="#fefefe"/>
      <stop offset=".92" stop-color="#fff"/>
    </linearGradient>
    <clipPath id="clippath-6">
      <path class="cls-12" d="M52.53,879.95c-2.22-50.5,18-98.67,61.18-100.76,43.17-2.08,34.23,77.15,48.85,80.63,14.62,3.48,19.08,9.75,19.08,37.6s17.83,38.99,60.3,37.6c42.48-1.39,67.98,65.01,8.8,85.21-59.19,20.19-191.12,21.67-198.21-140.28h0Z"/>
    </clipPath>
    <linearGradient id="Gradiente_sem_nome_1063" data-name="Gradiente sem nome 1063" x1="503.92" y1="-3182.15" x2="642.83" y2="-3182.15" gradientTransform="translate(-499.44 -2296.77) rotate(-9.86) scale(1 -1)" gradientUnits="userSpaceOnUse">
      <stop offset=".1" stop-color="#79a2ff"/>
      <stop offset=".25" stop-color="#5a8eff"/>
      <stop offset=".38" stop-color="#719eff"/>
      <stop offset=".53" stop-color="#5a8eff"/>
      <stop offset=".66" stop-color="#709cff"/>
      <stop offset=".79" stop-color="#adc5ff"/>
      <stop offset=".91" stop-color="#fefefe"/>
      <stop offset=".92" stop-color="#fff"/>
    </linearGradient>
    <clipPath id="clippath-7">
      <path class="cls-12" d="M537.17,724.6c-9.21-42.01.7-85.34,36.59-93.38,35.89-8.04,39.94,59.68,52.7,60.47,12.76.78,18.95,5.17,21.48,28.74,7.31,67.96,76.34,91.34,30.78,118.83-31.98,19.29-112.02,20.07-141.55-114.65h0Z"/>
    </clipPath>
  </defs>
  <g id="OBJECTS">
    <g id="OBJECTS-2" data-name="OBJECTS">
      <g>
        <g>
          <g>
            <ellipse class="cls-13" cx="226.94" cy="1005.61" rx="151.77" ry="54.38" transform="translate(-71.15 18.75) rotate(-4.09)"/>
            <g class="cls-27">
              <polygon class="cls-5" points="250.72 1020.23 35.74 1090.82 0 994.75 213.31 971.69 267.09 1005.59 250.72 1020.23"/>
            </g>
            <path class="cls-5" d="M200.81,1061.94c-29.27,0-56.4-3.19-78.44-9.36-29.76-8.32-46.74-21.14-47.81-36.07-1.07-14.94,13.91-30.04,42.19-42.51,27.96-12.33,65.69-20.73,106.24-23.63,40.55-2.9,79.09.04,108.52,8.27,29.76,8.32,46.74,21.13,47.81,36.07,1.07,14.94-13.91,30.04-42.19,42.51-27.96,12.33-65.69,20.72-106.24,23.62-10.19.73-20.26,1.09-30.08,1.09ZM223.07,951.37l.07.99c-82.93,5.93-148.68,34.65-146.58,64.01,2.1,29.36,71.27,48.42,154.2,42.5,40.32-2.88,77.82-11.22,105.58-23.46,27.45-12.11,42.01-26.51,41.01-40.55-2.1-29.37-71.27-48.43-154.2-42.5l-.07-.99Z"/>
          </g>
          <g>
            <path class="cls-6" d="M235.53,1098.34c36.19-2.96,72.68-9.5,106.01-24.29,14.7-6.97,33.89-17.3,38.94-33.77.6-2.24.85-4.58.69-6.89l-2.76-38.64c.85,30.79-58.25,49.2-82.74,55.15-55.86,13.89-150.52,18.68-201.66-9.94,0,0-.03-.01-.04-.03-8.61-5.19-17.5-12.84-18.34-23.51.29,2.2,2.59,41.58,3.45,42.55,2.52,8.82,10.08,15.01,17.65,19.61,17.65,10.19,37.95,14.63,57.95,17.67,26.73,3.78,53.92,4.1,80.83,2.08h.01Z"/>
            <g class="cls-25">
              <g>
                <rect class="cls-17" x="132.17" y="1001.49" width="85.75" height="132.93" transform="translate(-75.72 15.2) rotate(-4.09)"/>
                <rect class="cls-17" x="311.84" y="984.43" width="85.75" height="132.93" transform="translate(-74.05 27.98) rotate(-4.09)"/>
                <rect class="cls-17" x="22.45" y="986.88" width="85.75" height="132.93" transform="translate(-74.96 7.34) rotate(-4.09)"/>
              </g>
            </g>
            <path class="cls-5" d="M203.72,1100.57c-17.13,0-33.58-1.11-49.17-3.31-18.45-2.8-39.8-7.11-58.31-17.79-10.19-6.21-15.94-12.62-18.11-20.2h0c-.5-1.44-1.07-7.11-2.79-32.84-.28-4.21-.52-7.7-.64-9.17-.03-.24-.05-.48-.07-.73l1.98-.21c.02.13.04.37.07.72.91,8.08,6.9,15.51,17.79,22.07l.12.07c48.15,26.83,139.35,25.07,200.83,9.78,13.85-3.37,82.88-21.81,81.98-54.16l1.99-.1,2.76,38.64c.16,2.38-.08,4.8-.72,7.21-4.97,16.2-22.75,26.48-39.48,34.41-29.49,13.09-63.17,20.83-106,24.36l-.02.02-.35.03c-10.85.81-21.49,1.22-31.87,1.22ZM79.94,1058.45l.04.05.06.22c2.02,7.07,7.49,13.11,17.21,19.03,18.21,10.51,39.33,14.77,57.59,17.54,24.8,3.51,51.82,4.21,80.31,2.1l.3-.03c42.77-3.5,76.35-11.19,105.69-24.21,16.32-7.73,33.66-17.73,38.39-33.15.57-2.16.8-4.37.65-6.53l-2.13-29.88c-3.54,10.38-13.94,20.08-31.04,28.95-19.4,10.06-42.19,16.18-51.1,18.35-61.9,15.4-153.87,17.11-202.38-10.04l-.15-.09c-7.76-4.69-13.14-9.84-16.1-15.4.02.31.04.62.06.94.71,10.54,2.01,30.01,2.6,32.16Z"/>
          </g>
        </g>
        <g>
          <g>
            <ellipse class="cls-14" cx="710.11" cy="865.77" rx="111.91" ry="40.11" transform="translate(-59.94 52.85) rotate(-4.09)"/>
            <path class="cls-5" d="M690.84,907.57c-21.61,0-41.64-2.36-57.91-6.91-22.06-6.17-34.65-15.7-35.44-26.84-.8-11.14,10.31-22.36,31.26-31.61,20.65-9.11,48.5-15.3,78.43-17.44,29.93-2.14,58.38.03,80.11,6.11,22.06,6.17,34.65,15.7,35.44,26.84.8,11.14-10.31,22.36-31.26,31.61-20.65,9.11-48.5,15.3-78.43,17.44-7.52.54-14.95.8-22.2.8ZM729.38,825.95c-7.21,0-14.59.26-22.06.8-29.71,2.12-57.32,8.26-77.77,17.28-20.13,8.88-30.81,19.41-30.08,29.65.73,10.24,12.8,19.14,33.99,25.06,21.51,6.02,49.72,8.17,79.43,6.04,29.71-2.12,57.32-8.26,77.77-17.28,20.13-8.88,30.81-19.41,30.08-29.65-.73-10.24-12.8-19.14-33.99-25.06-16.1-4.5-35.95-6.84-57.37-6.84Z"/>
          </g>
          <g>
            <path class="cls-4" d="M716.45,934.1c26.68-2.18,53.59-7.01,78.17-17.91,10.84-5.13,24.98-12.75,28.72-24.9.44-1.65.62-3.37.52-5.08l-2.04-28.5c.62,22.71-42.95,36.27-61.01,40.68-41.18,10.24-111,13.77-148.71-7.34,0,0-.03,0-.03-.01-6.36-3.82-12.9-9.47-13.52-17.34.21,1.62,1.91,30.66,2.55,31.38,1.86,6.5,7.43,11.07,13.02,14.46,13.02,7.51,27.98,10.79,42.74,13.03,19.72,2.79,39.76,3.03,59.61,1.54h-.03Z"/>
            <g class="cls-22">
              <g>
                <rect class="cls-17" x="640.17" y="862.68" width="63.23" height="98.02" transform="translate(-63.31 50.24) rotate(-4.09)"/>
                <rect class="cls-17" x="772.65" y="850.09" width="63.23" height="98.02" transform="translate(-62.08 59.65) rotate(-4.09)"/>
                <rect class="cls-17" x="559.28" y="851.89" width="63.23" height="98.02" transform="translate(-62.75 44.44) rotate(-4.09)"/>
              </g>
            </g>
            <path class="cls-5" d="M693.05,935.99c-12.65,0-24.81-.82-36.33-2.44-13.63-2.07-29.4-5.25-43.09-13.15-7.58-4.61-11.86-9.39-13.47-15.05h0c-.37-1.08-.78-5.06-2.07-24.39-.2-2.96-.37-5.59-.46-6.67-.02-.17-.03-.34-.05-.51l1.98-.21c.01.1.03.27.05.52.66,5.88,5.01,11.28,12.93,16.06l.07.04c35.38,19.81,102.65,18.51,147.98,7.24,10.18-2.48,60.9-16.06,60.25-39.69l1.99-.1,2.04,28.5c.11,1.81-.07,3.62-.55,5.41-3.71,12.06-16.87,19.68-29.26,25.55-21.56,9.56-47.23,15.45-78.5,18h0c-7.99.6-15.84.9-23.49.9ZM601.98,904.55l.03.03.06.22c1.47,5.15,5.47,9.56,12.58,13.88,13.38,7.72,28.93,10.85,42.37,12.9,18.34,2.59,38.31,3.11,59.36,1.53h0c31.05-2.53,56.52-8.37,77.85-17.83,11.97-5.67,24.7-13,28.18-24.29.41-1.54.57-3.14.47-4.73l-1.5-20.86c-8.04,19.67-47.28,30.77-60.32,33.95-36.38,9.05-108.97,15.04-149.2-7.31h-.74v-.44c-5.1-3.13-8.77-6.55-11.01-10.22.52,7.8,1.44,21.35,1.87,23.16Z"/>
          </g>
        </g>
        <g>
          <g>
            <ellipse class="cls-9" cx="853.47" cy="616.53" rx="88.44" ry="31.7" transform="translate(-188.3 464.11) rotate(-27.52)"/>
            <path class="cls-5" d="M797.22,667.22c-11.51,0-19.78-3.04-23.08-9.36-8.47-16.26,19.74-47.14,64.21-70.32,44.48-23.17,85.96-28.59,94.42-12.33,8.47,16.26-19.74,47.15-64.21,70.32-27.19,14.17-53.26,21.7-71.35,21.7ZM909.92,567.82c-17.73,0-43.87,7.53-70.64,21.48-42.76,22.28-71.19,52.62-63.37,67.63,7.82,15.01,48.97,9.1,91.74-13.18,42.76-22.28,71.19-52.62,63.37-67.63-2.93-5.61-10.51-8.3-21.1-8.3Z"/>
          </g>
          <g>
            <path class="cls-15" d="M879.5,664.18c18.67-9.96,36.66-21.92,51.05-37.55,6.25-7.12,14.1-17.1,13-27.08-.2-1.34-.61-2.64-1.22-3.85l-10.43-20.02c7.59,16.28-19.74,39.8-31.46,48.67-26.66,20.37-76.16,44.86-110.14,41.4h-.03c-5.81-.78-12.33-2.81-15.24-8.33.66,1.11,11.03,21.64,11.7,21.96,3.38,4.14,8.86,5.69,13.98,6.4,11.8,1.37,23.68-.97,35.08-3.98,15.17-4.17,29.79-10.31,43.7-17.61h-.01Z"/>
            <g class="cls-28">
              <g>
                <rect class="cls-17" x="815.19" y="623.26" width="49.97" height="77.46" transform="translate(-210.81 463.11) rotate(-27.52)"/>
                <rect class="cls-17" x="907.3" y="572.5" width="49.97" height="77.46" transform="translate(-176.93 499.93) rotate(-27.52)"/>
                <rect class="cls-17" x="753.11" y="640.84" width="49.97" height="77.46" transform="translate(-225.96 436.42) rotate(-27.52)"/>
              </g>
            </g>
            <path class="cls-5" d="M807.83,687.16c-2.4,0-4.81-.13-7.22-.4-6.97-.96-11.6-3.08-14.58-6.68-.57-.58-2-3.09-9.26-17.19-1.06-2.06-2-3.89-2.4-4.64-.07-.12-.14-.24-.2-.37l1.73-.97c.04.07.11.19.2.37,2.29,4,7.11,6.52,14.32,7.49h0c31.93,3.17,80.16-18.84,109.43-41.2,6.58-4.98,38.99-30.65,31.16-47.46l1.78-.88,10.43,20.02c.66,1.31,1.11,2.71,1.32,4.16,1.11,10.01-6.07,19.71-13.24,27.88-11.97,13-27.66,24.76-47.88,35.9h.13l-3.58,1.88c-14.95,7.84-29.72,13.79-43.9,17.69-8.52,2.25-18.27,4.41-28.24,4.41ZM787.35,678.56h.02s.14.19.14.19c2.64,3.23,6.88,5.15,13.35,6.04,12.07,1.4,24.31-1.22,34.69-3.96,13.85-3.81,28.29-9.6,42.91-17.22l.56-.3c21.7-11.58,38.32-23.8,50.79-37.34,6.86-7.83,13.76-17.09,12.75-26.3-.18-1.21-.56-2.4-1.12-3.51l-7.24-13.9c-.48,16.74-24.82,36.58-33.16,42.89-22.14,16.92-68.35,41.93-103.91,41.93-2.36,0-4.67-.11-6.93-.34-4.57-.61-8.27-1.82-11.08-3.61,2.71,5.26,7.31,14.14,8.22,15.43Z"/>
          </g>
        </g>
        <g>
          <g>
            <ellipse class="cls-2" cx="840.37" cy="457.64" rx="67.9" ry="24.33" transform="translate(-100.2 633.64) rotate(-39.17)"/>
            <path class="cls-5" d="M798.42,505.52c-5.09,0-9.06-1.41-11.47-4.37-8.97-11.01,7.46-38.75,37.42-63.16h0c29.95-24.4,60.44-34.89,69.41-23.88,8.97,11.01-7.46,38.75-37.42,63.16-21.9,17.84-44.09,28.25-57.94,28.25ZM825.63,439.54c-28.12,22.91-45.12,50.55-37.13,60.36,7.99,9.81,38.5-1.26,66.62-24.17,28.12-22.91,45.12-50.55,37.13-60.36-7.99-9.8-38.5,1.26-66.61,24.17h0Z"/>
          </g>
          <g>
            <path class="cls-3" d="M867.32,489.34c12.48-10.39,24.16-22.16,32.56-36.15,3.6-6.33,7.96-15.05,5.57-22.38-.36-.97-.86-1.9-1.51-2.71l-10.95-13.44c8.23,11.05-8.68,32.98-16.11,41.46-16.88,19.45-50.3,45.54-76.38,48.22h-.03c-4.48.32-9.71-.2-12.76-3.9.68.73,11.64,14.55,12.21,14.69,3.18,2.59,7.55,2.91,11.5,2.64,9.09-.81,17.66-4.4,25.77-8.43,10.76-5.49,20.79-12.37,30.13-20.02v.03Z"/>
            <g class="cls-26">
              <g>
                <rect class="cls-17" x="818.13" y="464.07" width="38.37" height="59.47" transform="translate(-123.74 639.84) rotate(-39.17)"/>
                <rect class="cls-17" x="879.52" y="411.62" width="38.37" height="59.47" transform="translate(-76.81 666.82) rotate(-39.17)"/>
                <rect class="cls-17" x="774.2" y="486.93" width="38.37" height="59.47" transform="translate(-148.04 617.22) rotate(-39.17)"/>
              </g>
            </g>
            <path class="cls-5" d="M809.25,518.83c-4.28,0-7.45-.93-9.89-2.88-.6-.41-2.15-2.21-9.56-11.38-1.11-1.37-2.17-2.68-2.61-3.22-.08-.09-.16-.19-.24-.28l1.5-1.31c.05.05.13.14.24.28,2.3,2.58,6.23,3.69,11.72,3.31,18.19-1.87,50.92-19.28,75.73-47.87,4.16-4.74,24.45-28.95,16.06-40.22l1.57-1.22,10.95,13.44c.7.87,1.26,1.88,1.67,2.99,2.43,7.45-1.49,15.92-5.64,23.22-7.48,12.47-17.89,24.04-32.79,36.43l-1.63,1.36v-.06c-9.49,7.62-19.13,13.94-28.68,18.82-7.54,3.74-16.54,7.68-26.13,8.53-.79.05-1.54.08-2.26.08ZM800.36,514.2h.01s.18.15.18.15c2.44,1.98,5.87,2.75,10.81,2.42,9.24-.82,18.02-4.67,25.39-8.32,9.96-5.08,20.04-11.78,29.94-19.9l1.41-1.15c13.96-11.8,23.82-22.86,30.93-34.72,3.92-6.91,7.65-14.89,5.48-21.56-.33-.87-.78-1.69-1.34-2.39l-7.08-8.69c1.47,12.74-13.26,30.82-18.45,36.74-14.96,17.25-49.11,45.68-77.03,48.55-3.2.23-5.95-.02-8.23-.74,2.79,3.45,7.06,8.72,7.99,9.62Z"/>
          </g>
        </g>
        <g>
          <path class="cls-5" d="M686.86,660.57c-15.09,83.56-196.01,45.35-180.75-4.99,1.27-4.22,71.7-105.96,71.7-105.96l113.98,42.31-4.95,68.63h.01Z"/>
          <path class="cls-5" d="M249.5,853.71c-18.71,51.05-129.63-4.21-150.48-48.53-20.87-44.33-18.51-66.91-.49-92.25,18-25.34,115.75-38.11,115.75-38.11l34.84,88.75c8.82,32.88,14.09,44.45.4,90.14h-.01Z"/>
          <g>
            <path class="cls-8" d="M170.69,879.95l74.84-145.53-91.52-49.54s-43.82,66.34-55.5,122.59c-11.68,56.26,72.18,72.48,72.18,72.48Z"/>
            <path class="cls-5" d="M171.23,881.07l-.73-.14c-.47-.09-47.58-9.49-66.34-37.66-7.13-10.71-9.36-22.82-6.62-36,11.58-55.8,55.2-122.28,55.64-122.94l.5-.76,93.18,50.44-.45.87-75.19,146.2ZM154.35,686.19c-4.88,7.55-44.02,69.28-54.86,121.48-2.62,12.64-.49,24.24,6.33,34.49,17.03,25.58,58.34,35.36,64.33,36.66l74.05-143.99-89.86-48.64Z"/>
          </g>
          <path class="cls-5" d="M101.21,771.21c21.72-37.43,131.92-.17,110.22,37.26l54.48-81.72-113.4-56.15-51.29,100.6h0Z"/>
          <g>
            <g>
              <path class="cls-20" d="M626.65,723.08l74.84-145.53-91.52-49.54s-43.82,66.34-55.5,122.59c-11.68,56.26,72.18,72.48,72.18,72.48h0Z"/>
              <path class="cls-5" d="M627.2,724.19l-.73-.14c-.47-.09-47.58-9.49-66.34-37.66-7.13-10.71-9.36-22.82-6.62-36,11.58-55.8,55.2-122.28,55.64-122.94l.5-.76,93.18,50.44-.45.87-75.18,146.2ZM610.31,529.31c-4.88,7.55-44.02,69.28-54.86,121.48-2.62,12.64-.49,24.24,6.33,34.49,17.03,25.58,58.34,35.36,64.34,36.66l74.05-143.99-89.86-48.64Z"/>
            </g>
            <path class="cls-5" d="M542.28,637.55c21.72-37.43,131.92-.17,110.22,37.26l54.48-81.72-113.4-56.15-51.29,100.6h0Z"/>
          </g>
          <g>
            <path class="cls-11" d="M249.5,853.71c48.47-154.66,99.36-256.92,185.48-316.7,59.56,5.9,163.53-73.7,163.53-73.7-51.25,58.59-92.38,192.28-92.38,192.28,49.79-85.82,185.31-55.41,180.75,4.99,0,0,114.67-304.15,29.92-339.4-84.77-35.25-206.04,54.77-206.04,54.77,0,0-24.57-51.93-146.37,37.83-121.8,89.74-265.86,299.16-265.86,299.16,64.67-56.47,166.99,36.63,150.99,140.78h-.01Z"/>
            <g class="cls-29">
              <path class="cls-19" d="M245.53,845.51s54.29-231.23,156.98-291.84l9.14,18.44-150.2,299.08-15.92-25.69h0Z"/>
            </g>
            <path class="cls-5" d="M250.37,854.71h-2.21l.39-1.29s0,0,0-.01c4.54-29.77-.31-60.12-14.02-87.8-12.62-25.48-31.57-46.11-53.35-58.08-29.22-16.07-59.11-13.82-82,6.16l-5.95,5.2,4.48-6.51c1.44-2.1,145.55-210.58,266.09-299.4,69.88-51.49,107.97-56.4,127.63-51.45,12.53,3.16,17.99,10.28,19.65,12.96,5.37-3.86,33.87-23.84,70.51-40.05,37.5-16.59,91.48-32.52,135.59-14.17,19.72,8.2,30.39,31.35,31.69,68.79,1.04,29.7-3.77,68.48-14.28,115.27-17.88,79.59-46.5,155.85-46.78,156.62l-2.45,6.49.52-6.91c1.69-22.35-16.42-42.18-47.26-51.74-22.34-6.92-48.12-7.03-70.71-.29-26.34,7.86-47.4,24.32-60.92,47.62l-4.38,7.54,2.56-8.33c.1-.33,10.49-33.93,27-74.25,14.24-34.77,35.9-81.34,60.33-112.08-22.89,16.51-100.15,69.35-151.08,69.35-2.11,0-4.16-.09-6.17-.28-12.08,8.38-21.78,15.13-29.92,21.15,9.33-8.34,19.01-16,29.08-22.99l.3-.21.36.04c58.52,5.82,161.79-72.71,162.82-73.5l1.35,1.44c-26.38,30.16-50.04,80.72-65.23,117.82-11.87,28.98-20.57,54.48-24.55,66.61,13.77-20.21,33.62-34.6,57.86-41.83,22.97-6.85,49.16-6.74,71.87.3,29.15,9.04,47.25,27.13,48.68,48.07,6.76-18.64,29.62-83.66,44.76-151.07,16.4-73.02,26.9-163.82-16.24-181.77-43.45-18.07-96.85-2.29-133.99,14.14-40.35,17.84-70.77,40.28-71.07,40.51l-.97.72-.52-1.09c-.05-.09-4.63-9.35-19.02-12.94-19.24-4.8-56.7.18-125.86,51.14-109.13,80.41-237.74,259.3-261.7,293.3,22.74-16.5,51.11-17.36,78.86-2.1,22.13,12.17,41.37,33.1,54.18,58.94,12.31,24.85,17.57,51.84,15.41,78.66,25.12-78.75,49.21-137.43,75.53-184.08,8.11-14.37,16.55-27.78,25.36-40.26-6.52,10.92-14.06,24.27-23.63,41.24-27.34,48.46-52.28,109.97-78.49,193.58,0,0,0,0,0,.01l-.13.84Z"/>
          </g>
          <g>
            <path class="cls-16" d="M658.69,148.86s-.58-54.84-25.35-68.83c-24.77-14-58.07-4.46-63.38,3.45-5.31,7.91,3.83,13.92,3.83,13.92,0,0-10.91,6.66-.29,14.18,10.61,7.52,13.85,6.34,13.85,6.34l8.85,30.95h62.5-.01Z"/>
            <path class="cls-5" d="M661.19,149.87h-65.74l-8.83-30.88c-1.77-.03-5.78-.99-13.7-6.6-3.45-2.45-5.16-5.12-5.06-7.94.11-3.31,2.7-5.85,4.26-7.08-1.48-1.24-3.96-3.76-4.64-7.14-.5-2.47.06-4.93,1.65-7.31,5.53-8.24,39.61-17.94,64.7-3.76,10.53,5.95,18.09,19.52,22.45,40.33,2.91,13.87,3.34,26.5,3.4,28.94l1.51,1.44ZM596.95,147.88h60.72c-.24-7.45-2.64-54.45-24.82-66.99-24.19-13.67-56.82-4.67-62.06,3.14-1.28,1.91-1.74,3.86-1.35,5.79.8,3.98,4.87,6.71,4.91,6.74l1.3.86-1.33.82s-4.34,2.71-4.46,6.28c-.07,2.11,1.35,4.21,4.22,6.24,9.73,6.9,12.96,6.21,12.99,6.2l1-.37.24,1.04,8.64,30.23Z"/>
          </g>
          <g>
            <path class="cls-7" d="M115.7,286.27s30.04,45.88,58.44,44.34c28.41-1.54,51.33-27.53,51.55-37.04s-10.72-9.66-10.72-9.66c0,0,5.6-11.49-7.39-12.1-12.99-.62-15.09,2.12-15.09,2.12l-24.12-21.32-52.66,33.66h-.01Z"/>
            <path class="cls-5" d="M172.71,331.65c-11.71,0-24.87-7.37-39.15-21.93-11-11.22-18.62-22.78-18.69-22.9l-1.01-1.54h1.56l53.05-33.91,24.06,21.27c1.51-.93,5.41-2.29,15.09-1.82,4.22.2,7.1,1.53,8.53,3.96,1.69,2.85.88,6.38.23,8.26,1.91.25,5.36,1.04,7.75,3.52,1.75,1.82,2.61,4.18,2.54,7.04-.22,9.93-23.71,36.46-52.49,38.02-.49.03-.99.04-1.49.04ZM117.1,286.57c4.25,6.2,31.54,44.44,56.99,43.05,27.75-1.5,50.39-26.67,50.6-36.07.05-2.3-.61-4.19-1.98-5.61-2.81-2.92-7.71-3.03-7.76-3.04l-1.56-.03.68-1.4s2.2-4.62.37-7.69c-1.08-1.81-3.4-2.81-6.91-2.98-11.9-.57-14.26,1.75-14.28,1.78l-.65.85-.77-.75-23.56-20.82-51.18,32.71Z"/>
          </g>
          <g>
            <path class="cls-21" d="M451.42,82.41c.41-4.03-5.94-7.95-8.57-9.39-10.97-41.59-29.14-57.5-53.52-57.6-31.43-.13-85.84,52.55-28.88,98.99l13.48,68.66c6.33,25.08,54.07,16,49.87-6.89l-5.61-35.9c15.48-4.21,31.91-18.2,27.74-51.78,2.49-1.33,5.23-3.37,5.51-6.08h-.01Z"/>
            <path class="cls-5" d="M396.93,199.09c-10.85,0-21.21-4.86-23.97-15.77l-13.42-68.36c-21.81-17.9-29.68-39.29-22.17-60.24,8.52-23.78,34.13-40.29,51.85-40.29h.12c26.6.1,43.89,18.51,54.37,57.93,3.47,1.96,8.72,5.59,8.73,9.66l.04.04-.05.47c-.25,2.42-2.07,4.61-5.43,6.52,4.42,37.8-17.19,48.85-27.69,51.95l5.48,35.03c2.16,11.8-8.78,19.78-19.86,22.19-2.62.57-5.33.87-8,.87ZM389.21,16.42c-17.05,0-41.73,15.97-49.97,38.97-5.12,14.28-5.48,35.98,21.83,58.25l.28.23,13.55,69.01c3.11,12.33,17.25,16.09,29.6,13.4,10.51-2.29,20.25-9.33,18.32-19.91l-5.75-36.81.86-.23c29.08-7.9,28.58-38.09,27.02-50.7l-.08-.68.6-.32c2.07-1.1,4.58-2.87,4.95-5.08l.02-.24c.24-2.36-2.77-5.51-8.06-8.42l-.37-.21-.11-.41c-10.21-38.69-26.91-56.76-52.56-56.85h-.11Z"/>
          </g>
          <path class="cls-5" d="M418.04,139.34c-10.4,2.8-25.49-1.74-36.09-10.02,0,0,11.03,29.15,38.48,25.35l-2.38-15.34h-.01Z"/>
          <path class="cls-5" d="M411.59,71.08c8.32-3.77-9.59-26.38-9.59-26.38,0,0-6.78-7.39,2.35-5.35,6.67,1.49,16.39.15,25.18-3.2,13.45-5.11,15.27-23.15,3.08-30.79-11.7-7.34-31.06-9.92-61.07,10.67-76.26,11.37-46.52,98.51-11.09,98.38,7.1.37,18.99-7.19,23.42-14.48-26.32-18.22-6.83-40.28,5.92-41.3,8.69-.69,17.61,4.95,21.81,12.45Z"/>
          <path class="cls-5" d="M392.02,102.55c-12.41,0-22.52-10.1-22.52-22.52s10.1-22.52,22.52-22.52c9.86,0,18.48,6.31,21.46,15.7l-1.9.6c-2.71-8.56-10.58-14.31-19.56-14.31-11.32,0-20.52,9.21-20.52,20.52s9.21,20.53,20.52,20.53v1.99Z"/>
          <path class="cls-5" d="M383.84,89.74c-.27,0-.54-.11-.73-.32-3.31-3.62-4.73-9.25-3.53-14.01,1.03-4.11,3.86-7.16,7.97-8.6,9.88-3.46,16.42,4.96,16.49,5.05.33.44.25,1.06-.19,1.39-.44.33-1.06.25-1.39-.19-.23-.3-5.74-7.35-14.24-4.37-4.43,1.55-6.09,4.77-6.7,7.21-1.04,4.14.19,9.04,3.07,12.18.37.41.34,1.03-.06,1.41-.19.17-.43.26-.67.26Z"/>
          <g>
            <path class="cls-5" d="M434.21,65.16c1.32-.18,2.98,3.89,3.69,9.11.72,5.21.23,9.58-1.09,9.77s-2.98-3.89-3.69-9.11c-.72-5.21-.23-9.58,1.09-9.77Z"/>
            <path class="cls-5" d="M433.21,66.52c.64-5.49,4.59-4.43,5.89.9l-5.89-.9Z"/>
          </g>
          <path class="cls-5" d="M425.5,70.33c-.45,0-.86-.31-.97-.77-1.3-5.72.74-16.97,5.12-18.41,2.31-.76,4.45,1.11,6.38,5.54.22.5-.01,1.09-.52,1.31-.5.22-1.09-.01-1.31-.52-1.39-3.19-2.82-4.81-3.94-4.45-2.72.89-5.03,10.66-3.8,16.08.12.54-.21,1.07-.75,1.19-.07.02-.15.02-.22.02Z"/>
          <g>
            <path class="cls-1" d="M592.17,111.54c.58-.37,1.18-.74,1.79-1.1,34.19-20.37,77.97,2.27,82.23,41.83,5.43,50.55-5.29,139.87-150.52,134.77,0,0,17.25,42.8,3.08,76.81,0,0-128.9,147.39-206.43,78.36l-36.84,38.26s-86.44-41.09-84.32-89.28c2.12-48.18,41.09-46.76,41.09-46.76,0,0,44.63-45.35,60.22-73.69,0,0-78.01-.7-101.35-21.96,0,0,6.42,86.44-59.48,76.52-65.89-9.92-121.86-99.91-69.43-149.5,52.43-49.6,229.56-3.54,229.56-3.54,0,0-8.92-38.32,51.01-25.81,59.92,12.51,87.86,39.27,87.86,39.27,0,0,77.94-27.64,136.03,0,0,0,7.68-24.05,3.89-48.68-1.54-10.02,3.05-20.06,11.6-25.5h.01Z"/>
            <path class="cls-5" d="M285.69,481.68l-.65-.31c-.22-.1-21.95-10.5-43.13-26.68-28.2-21.53-42.64-43.5-41.75-63.55,2.02-45.76,37.23-47.65,41.67-47.71,3.81-3.91,43.62-44.97,58.96-71.73-5.21-.12-21.89-.65-40.37-2.99-28.26-3.57-47.82-9.52-58.2-17.7.13,4.03.18,12.91-1.31,23.12-1.88,12.88-6.65,30.58-18.74,41.78-10.15,9.41-23.84,12.9-40.68,10.36-38.1-5.74-74.68-38.34-86.97-77.52-8.99-28.64-2.95-54.81,17-73.69,21.97-20.78,67.46-27.72,135.23-20.64,45.16,4.72,85.62,14.45,93.77,16.48-.49-3.65-.9-12.9,5.9-19.86,8.24-8.43,23.91-10.31,46.56-5.58,55.45,11.58,84.03,35.67,87.89,39.12,7.17-2.41,80.09-25.73,135.17-.26,1.41-4.95,6.79-25.96,3.53-47.14-1.59-10.38,3.09-20.74,11.95-26.43l.11-.07c.59-.38,1.2-.75,1.82-1.12,16.13-9.61,35.87-10.29,52.81-1.83,17.3,8.64,28.86,25.25,30.92,44.42,3.06,28.49.97,68.62-26.35,97.98-25.07,26.94-66.68,39.7-123.71,37.95,2.81,7.74,15.26,45.63,2.54,76.15l-.17.27c-.2.23-20.52,23.36-49.4,46.73-26.7,21.61-66.39,47.86-103.87,50.21-20.64,1.28-38.75-4.72-53.86-17.85l-36.68,38.1ZM241.72,345.43c-4.65,0-37.62,1.57-39.57,45.81-1.97,44.8,75.22,84.13,83.11,88.02l37.01-38.43.71.64c14.84,13.21,32.71,19.26,53.12,17.98,69.62-4.35,148.41-92.32,151.79-96.14,13.74-33.22-2.98-75.48-3.15-75.9l-.57-1.42,1.53.05c57.19,2.01,98.79-10.53,123.67-37.26,26.81-28.81,28.85-68.33,25.83-96.41-1.99-18.5-13.14-34.52-29.83-42.85-16.33-8.15-35.36-7.49-50.9,1.77-.57.34-1.13.68-1.67,1.03l-.1.07c-8.25,5.25-12.63,14.87-11.15,24.51,3.79,24.57-3.85,48.89-3.92,49.13l-.35,1.09-1.03-.49c-57.06-27.14-134.5-.24-135.28.04l-.58.2-.44-.42c-.28-.27-28.47-26.72-87.38-39.02-21.94-4.58-36.99-2.89-44.73,5.03-7.72,7.9-5.14,19.46-5.11,19.58l.37,1.6-1.59-.41c-1.77-.46-177.19-45.35-228.62,3.3-19.37,18.32-25.22,43.77-16.47,71.64,12.08,38.49,47.98,70.52,85.37,76.15,16.21,2.44,29.34-.87,39.03-9.85,22.36-20.73,19.35-65.16,19.31-65.61l-.18-2.49,1.85,1.68c22.79,20.76,99.92,21.69,100.69,21.7h1.67s-.8,1.47-.8,1.47c-15.48,28.14-59.94,73.45-60.39,73.91l-.31.31-.44-.02c-.08,0-.25,0-.49,0Z"/>
          </g>
          <path class="cls-5" d="M328.06,445.86c-39.22-32.9-42.42-74.75-90.51-79.5-48.08-4.74-45.44,74.19,49.54,115.87l40.97-36.37h0Z"/>
          <path class="cls-5" d="M303.79,270.46l28.92-52.74s-20.35-6.94-30.95-45.46l-47.67-10.07c27.93,36.29-29.53,52.69-52.98,86.59,24.15,15.17,59.33,21.64,102.68,21.68Z"/>
          <path class="cls-5" d="M525.88,286.05c-38.2-3.49-64.67-17.17-64.67-17.17,19.19,24.86,42.83,43.16,72.72,52.29,0-11.25-2.59-23.62-8.05-35.12Z"/>
          <path class="cls-5" d="M361.9,227.81c-9.87,0-18.29-1.81-25.2-5.45l.93-1.76c34.13,17.93,99.34-16.72,99.99-17.07l.94,1.75c-.17.09-16.8,8.99-37.51,15.51-14.86,4.68-27.94,7.02-39.15,7.02Z"/>
          <path class="cls-5" d="M202.23,251.23l-1.99-.02c.37-32.28-29.74-49.82-30.04-49.99l.98-1.73c.31.18,31.43,18.27,31.05,51.75Z"/>
          <path class="cls-5" d="M403.24,219.04s-39.39,32.08-87.62,26.96l16.08-28.71c15.79,7.97,48.15,10.34,71.54,1.75h0Z"/>
          <g>
            <path class="cls-10" d="M52.53,879.95c-2.22-50.5,18-98.67,61.18-100.76,43.17-2.08,34.23,77.15,48.85,80.63,14.62,3.48,19.08,9.75,19.08,37.6s17.83,38.99,60.3,37.6c42.48-1.39,67.98,65.01,8.8,85.21-59.19,20.19-191.12,21.67-198.21-140.28h0Z"/>
            <g class="cls-23">
              <g>
                <path class="cls-5" d="M48.83,885.74c-1.74-47.1,29.71-60.08,62.81-41.29,52.79,29.97,16.86,152.94,93.62,167.48,76.75,14.54,99.44-17.39,99.44-17.39,0,0,9.3,56.35-51.76,61.01-61.06,4.66-226.79-48.85-226.79-48.85l22.67-120.95Z"/>
                <path class="cls-17" d="M30.81,902.9l-.94-1.74c.49-.26,49.3-26.21,107.53-8.33l-.58,1.89c-57.42-17.63-105.53,7.92-106,8.18Z"/>
                <path class="cls-17" d="M38.39,937.38l-.94-1.74c.49-.26,49.3-26.21,107.53-8.33l-.58,1.89c-57.41-17.63-105.53,7.92-106,8.18Z"/>
                <path class="cls-17" d="M45.61,967.1l-.94-1.74c.49-.26,49.29-26.21,107.53-8.33l-.58,1.89c-57.41-17.63-105.53,7.92-106,8.18Z"/>
                <path class="cls-17" d="M60.46,1003.39l-.94-1.74c.49-.26,49.29-26.21,107.53-8.33l-.58,1.89c-57.41-17.63-105.52,7.92-106,8.18Z"/>
              </g>
            </g>
            <path class="cls-5" d="M191.8,1030.74c-27.56,0-56.88-6.21-81.6-23.1-36.3-24.79-56.04-67.74-58.66-127.65h0c-2.08-47.48,16.47-99.59,62.12-101.79,28.45-1.4,34.94,31.45,39.69,55.42,2.57,12.95,4.78,24.13,9.44,25.24,15.95,3.79,19.84,11.36,19.84,38.57,0,11.13,2.91,19.36,8.89,25.14,8.94,8.66,24.95,12.31,50.39,11.46,10.51-.34,20.82,3.47,29,10.73,7.76,6.9,13.05,16.26,14.9,26.36,1.85,10.13.07,19.97-5.15,28.44-5.96,9.68-15.92,16.95-29.59,21.61-16.5,5.63-37.32,9.56-59.26,9.57ZM115.37,780.15c-.53,0-1.07.01-1.62.04-44.3,2.14-62.27,53.19-60.23,99.72h0c2.59,59.25,22.04,101.68,57.8,126.09,43.78,29.9,102.3,25.84,139.1,13.29,36.83-12.57,34.9-39.77,33.43-47.81-4.35-23.78-24.82-36.05-41.88-35.46-26.01.84-42.48-2.97-51.84-12.02-6.39-6.18-9.49-14.87-9.49-26.57,0-27.83-4.35-33.31-18.31-36.63-5.9-1.4-8.12-12.61-10.93-26.79-4.76-24.05-10.67-53.85-36.02-53.85Z"/>
          </g>
          <g>
            <path class="cls-18" d="M537.17,724.6c-9.21-42.01.7-85.34,36.59-93.38,35.89-8.04,39.94,59.68,52.7,60.47,12.76.78,18.95,5.17,21.48,28.74,7.31,67.96,76.34,91.34,30.78,118.83-31.98,19.29-112.02,20.07-141.55-114.65h0Z"/>
            <g class="cls-24">
              <g>
                <path class="cls-5" d="M534.92,729.99c-8.33-39.23,16.15-54.69,46.64-43.77,45.08,16.16,29.48,75.91,67.59,111.33,11.46,10.65,28.58,22.13,26.84,33.42-7.55,49.36-142.46,3.71-142.46,3.71l1.38-104.7h.01Z"/>
                <path class="cls-17" d="M522.32,746.99l-1.05-1.32c.37-.29,37.5-29.16,88.93-22.65l-.21,1.67c-50.72-6.41-87.3,22.01-87.67,22.3Z"/>
                <path class="cls-17" d="M533.69,774.8l-1.05-1.32c.37-.29,37.5-29.16,88.93-22.65l-.21,1.67c-50.68-6.41-87.3,22.01-87.67,22.3Z"/>
                <path class="cls-17" d="M535.44,799.43l-1.05-1.32c.37-.29,37.51-29.16,88.93-22.65l-.21,1.67c-50.68-6.42-87.3,22.01-87.67,22.3Z"/>
                <path class="cls-17" d="M555.01,825.71l-1.05-1.32c.37-.29,37.51-29.16,88.93-22.65l-.21,1.67c-50.73-6.42-87.31,22.01-87.67,22.3Z"/>
              </g>
            </g>
            <path class="cls-5" d="M642.95,849.49c-9.8,0-20.42-1.84-31.17-6.46-25.02-10.76-58.44-40-75.58-118.21l-.02-.12c-8.64-39.55-.63-85.95,37.37-94.46,23.76-5.33,34.03,21.31,41.52,40.76,3.85,10,7.49,19.44,11.46,19.69,13.11.8,19.81,5.44,22.41,29.63,3.22,29.91,18.41,50.99,30.62,67.93,9.69,13.45,17.35,24.08,15.27,34.24-1.29,6.3-6.39,12.06-15.58,17.61-8.58,5.17-21.49,9.38-36.29,9.38ZM538.17,724.51c16.97,77.31,49.82,106.13,74.4,116.7,26.29,11.3,51.79,5.56,65.64-2.79,8.7-5.25,13.49-10.58,14.66-16.31,1.9-9.31-5.53-19.62-14.94-32.68-12.35-17.13-27.71-38.45-30.98-68.88-2.46-22.9-8.33-27.1-20.55-27.85-5.25-.33-8.75-9.43-13.2-20.96-7.63-19.82-17.13-44.48-39.23-39.54-36.71,8.22-44.31,53.56-35.84,92.2l.02.12Z"/>
          </g>
          <path class="cls-5" d="M437,536.25c-46.56-2.67-65.26-20.33-68.73-14-3.46,6.33,31.66,43.2,31.66,43.2l37.07-29.2Z"/>
        </g>
        <path class="cls-5" d="M605.68,205.21c-.17-.13-17.66-13.19-34.89-21l.82-1.81c17.44,7.9,35.09,21.09,35.27,21.22l-1.19,1.59Z"/>
      </g>
    </g>
  </g>
</svg>